<?xml version="1.0" standalone="no"?>
<!DOCTYPE svg PUBLIC "-//W3C//DTD SVG 20010904//EN"
 "http://www.w3.org/TR/2001/REC-SVG-20010904/DTD/svg10.dtd">
<svg version="1.0" xmlns="http://www.w3.org/2000/svg"
 width="591.000000pt" height="591.000000pt" viewBox="0 0 591.000000 591.000000"
 preserveAspectRatio="xMidYMid meet">

<g transform="translate(0.000000,591.000000) scale(0.100000,-0.100000)"
fill="#000000" stroke="none">
<path d="M520 2955 l0 -565 560 0 560 0 0 565 0 565 -560 0 -560 0 0 -565z
m1090 5 l0 -530 -530 0 -530 0 0 530 0 530 530 0 530 0 0 -530z"/>
<path d="M1067 3311 c-4 -85 -7 -193 -7 -241 l0 -87 -52 -7 c-29 -3 -125 -6
-213 -7 -88 -1 -173 -4 -190 -8 -31 -7 217 -21 373 -21 l82 0 0 -97 c0 -144
12 -384 19 -377 3 3 8 110 11 237 l5 232 155 6 c85 4 196 7 245 9 148 4 52 17
-135 19 -91 1 -188 4 -217 7 l-52 7 -1 201 c-2 268 -14 333 -23 127z"/>
<path d="M700 3300 c-22 -3 -35 -10 -35 -20 0 -11 14 -16 58 -18 54 -3 58 -4
52 -25 -4 -12 -29 -43 -56 -70 -48 -44 -60 -75 -33 -84 6 -2 34 17 63 43 l52
47 27 -25 c56 -51 107 -72 136 -56 23 13 6 32 -55 64 -85 43 -98 91 -27 96 39
3 71 28 56 43 -8 8 -191 12 -238 5z"/>
<path d="M1335 3268 c-16 -24 -53 -67 -82 -96 -38 -38 -53 -60 -51 -75 5 -33
36 -22 90 31 l48 46 27 -22 c16 -12 45 -34 67 -49 36 -26 39 -26 51 -9 18 24
13 34 -51 86 -38 31 -52 49 -48 60 4 8 7 26 8 40 2 41 -28 35 -59 -12z"/>
<path d="M703 2818 c-14 -18 -33 -90 -33 -123 0 -17 11 -37 31 -56 30 -28 35
-29 118 -28 124 1 134 6 145 60 10 54 2 112 -21 134 -22 22 -39 13 -35 -18 l3
-27 -86 0 c-82 0 -86 1 -80 20 6 20 -9 50 -25 50 -4 0 -12 -6 -17 -12z m215
-129 l3 -25 -88 3 c-105 5 -113 7 -113 30 0 16 11 18 98 18 97 0 97 0 100 -26z"/>
<path d="M1212 2823 c-38 -7 -23 -38 18 -39 62 -1 70 -4 70 -21 0 -10 -26 -43
-57 -75 -52 -52 -56 -59 -42 -73 14 -15 21 -12 66 29 28 26 55 46 60 46 6 0
18 -9 29 -21 26 -29 91 -61 117 -57 38 5 24 32 -31 61 -56 30 -88 67 -79 91 4
10 23 16 54 18 35 2 49 7 51 19 2 10 -6 19 -20 23 -25 6 -200 6 -236 -1z"/>
<path d="M3369 3353 c-1 -5 -2 -48 -3 -98 l-1 -90 -50 -3 c-63 -4 -105 -32
-89 -59 17 -29 74 -63 104 -63 l27 0 5 -140 c2 -77 7 -142 10 -145 11 -11 88
-9 100 3 14 14 30 193 31 347 1 126 -19 214 -55 240 -23 15 -77 21 -79 8z"/>
<path d="M5218 3353 c0 -5 -2 -48 -2 -98 l-1 -90 -57 -5 c-71 -6 -98 -28 -79
-63 17 -31 62 -57 100 -57 l31 0 0 -140 c0 -104 3 -142 13 -144 47 -15 67 -15
88 2 20 17 23 32 32 138 25 325 -3 464 -93 464 -16 0 -31 -3 -32 -7z"/>
<path d="M4346 3342 c-8 -13 -26 -133 -26 -173 l0 -36 -81 -6 c-44 -3 -83 -8
-86 -11 -3 -3 0 -19 7 -35 13 -33 69 -61 122 -61 l31 0 -7 -87 c-19 -248 -19
-268 -2 -301 20 -38 43 -52 89 -52 27 0 36 5 41 23 3 12 6 166 6 343 l0 320
-31 42 c-29 40 -52 52 -63 34z"/>
<path d="M3055 3320 c-31 -12 -50 -39 -75 -108 -13 -35 -34 -80 -48 -100 -141
-204 -149 -222 -114 -241 31 -17 62 9 131 113 36 55 71 99 76 100 6 0 32 -29
58 -64 73 -97 117 -142 134 -136 8 3 19 6 24 6 11 0 12 47 1 54 -5 3 -44 58
-87 121 l-77 117 12 59 c11 51 11 62 -1 74 -9 8 -21 10 -34 5z"/>
<path d="M4795 3314 c-38 -10 -110 -37 -119 -45 -12 -11 19 -56 44 -64 13 -4
29 1 46 14 30 24 104 29 104 9 0 -52 -27 -96 -115 -188 -90 -94 -111 -127
-103 -167 8 -40 39 -24 134 68 l94 93 28 -25 c44 -41 157 -109 180 -109 11 0
24 5 27 11 16 25 -8 57 -73 102 -106 72 -109 77 -91 145 16 63 25 69 115 71
56 1 80 18 69 50 -3 10 -16 22 -28 25 -32 8 -288 16 -312 10z"/>
<path d="M2038 3278 c-27 -5 -48 -14 -48 -18 0 -5 14 -20 32 -33 23 -19 37
-23 53 -17 12 5 46 5 76 2 53 -7 54 -8 51 -37 -5 -45 -53 -112 -132 -187 -60
-57 -71 -72 -68 -95 2 -22 9 -29 29 -31 22 -3 43 13 114 82 48 48 90 86 94 86
4 0 28 -19 52 -41 24 -23 62 -50 84 -60 22 -10 60 -30 85 -44 51 -29 78 -31
106 -11 28 22 10 44 -77 92 -103 57 -168 119 -176 166 -9 57 7 69 86 67 37 -2
76 3 89 10 28 15 29 47 1 62 -29 15 -390 21 -451 7z"/>
<path d="M3805 3213 c-4 -38 -13 -120 -20 -183 -16 -130 -22 -271 -12 -287 4
-6 55 -10 139 -9 149 1 186 13 207 64 18 44 8 400 -13 440 -14 27 -34 42 -56
42 -5 0 -11 -39 -12 -87 l-3 -88 -87 -3 -88 -3 0 68 c0 66 -17 113 -40 113 -5
0 -11 -30 -15 -67z m217 -292 c-1 -58 -5 -107 -8 -110 -3 -3 -40 -6 -82 -6
l-77 0 -3 113 -3 113 88 -3 88 -3 -3 -104z"/>
<path d="M2205 2918 c-3 -7 -10 -51 -17 -98 l-13 -85 -45 -7 c-25 -3 -82 -11
-128 -16 -46 -5 -85 -12 -88 -15 -12 -12 8 -43 44 -66 l37 -24 172 10 c112 6
210 7 279 1 160 -15 200 0 192 70 -3 23 -10 29 -48 39 -25 6 -100 12 -167 12
l-123 1 0 63 c0 58 -3 66 -33 95 -35 34 -55 40 -62 20z"/>
<path d="M2936 2818 c-7 -13 -31 -57 -51 -99 l-38 -77 19 -32 c29 -51 44 -56
105 -37 30 9 79 19 109 22 30 4 71 11 90 16 24 6 72 4 145 -6 155 -21 198 -20
220 5 18 20 18 21 -2 48 -22 30 -37 34 -200 53 -94 11 -198 9 -284 -7 l-36 -6
5 50 c4 41 1 53 -17 71 -27 27 -47 27 -65 -1z"/>
<path d="M4783 2828 c-6 -7 -30 -51 -53 -97 l-44 -84 20 -35 c27 -50 46 -59
89 -43 43 15 206 44 255 44 19 1 93 -5 163 -13 137 -15 159 -11 165 28 7 43
-28 62 -134 75 -116 14 -267 15 -341 4 l-52 -9 6 50 c5 43 2 52 -18 70 -26 25
-42 28 -56 10z"/>
</g>
</svg>
