<?xml version="1.0" standalone="no"?>
<!DOCTYPE svg PUBLIC "-//W3C//DTD SVG 20010904//EN"
 "http://www.w3.org/TR/2001/REC-SVG-20010904/DTD/svg10.dtd">
<svg version="1.0" xmlns="http://www.w3.org/2000/svg"
 width="176.000000pt" height="176.000000pt" viewBox="0 0 176.000000 176.000000"
 preserveAspectRatio="xMidYMid meet">

<g transform="translate(0.000000,176.000000) scale(0.100000,-0.100000)"
fill="#000000" stroke="none">
<path d="M520 1075 l0 -345 345 0 345 0 0 345 0 345 -345 0 -345 0 0 -345z
m670 5 l0 -330 -325 0 -325 0 0 325 0 325 323 3 c177 1 323 3 325 5 1 1 2
-146 2 -328z"/>
<path d="M862 1228 l-2 -138 -37 -1 c-21 -1 -85 -5 -143 -9 l-105 -7 143 -1
142 -2 2 -142 2 -143 6 140 5 140 140 5 c77 3 113 7 80 8 -33 1 -97 5 -142 9
l-82 6 -4 136 -3 136 -2 -137z"/>
<path d="M1040 1291 c0 -6 -22 -36 -50 -66 -27 -30 -50 -60 -50 -65 0 -19 24
-10 56 21 l33 32 31 -27 c17 -14 38 -26 46 -26 25 0 15 24 -21 53 -28 22 -34
33 -29 51 3 13 1 27 -5 30 -6 4 -11 2 -11 -3z"/>
<path d="M622 1284 c-21 -10 -2 -24 24 -18 40 10 44 -24 5 -58 -46 -41 -38
-69 8 -30 l35 29 34 -24 c35 -23 72 -31 72 -14 0 5 -8 12 -19 16 -28 8 -73 53
-66 65 3 6 20 10 36 10 20 0 29 4 27 13 -5 12 -130 21 -156 11z"/>
<path d="M958 993 c-31 -8 -20 -23 16 -23 29 0 33 -3 29 -20 -3 -11 -18 -30
-34 -41 -16 -11 -29 -27 -29 -35 0 -21 14 -17 46 15 l28 29 31 -23 c38 -28 59
-35 74 -25 9 5 -2 16 -33 34 -55 32 -64 66 -17 66 17 0 32 4 35 9 11 16 -97
27 -146 14z"/>
<path d="M626 968 c-21 -81 6 -108 101 -101 61 5 63 6 68 37 7 34 -8 86 -25
86 -5 0 -10 -7 -10 -15 0 -10 -10 -15 -34 -15 -19 0 -41 -3 -50 -6 -12 -4 -16
0 -16 15 0 28 -26 27 -34 -1z m144 -59 c0 -15 -4 -19 -16 -15 -9 3 -36 6 -60
6 -32 0 -44 4 -44 15 0 12 13 15 60 15 54 0 60 -2 60 -21z"/>
<path d="M792 573 c2 -21 -2 -28 -22 -33 l-25 -6 23 -15 c16 -10 22 -23 22
-51 0 -43 24 -53 34 -15 15 57 3 147 -21 147 -9 0 -13 -9 -11 -27z"/>
<path d="M1066 585 c-3 -9 -6 -25 -6 -36 0 -12 -7 -19 -20 -19 -11 0 -20 -4
-20 -10 0 -5 10 -10 21 -10 20 0 21 -4 15 -51 -7 -49 3 -79 25 -79 11 0 11
191 0 208 -7 11 -10 10 -15 -3z"/>
<path d="M1310 570 c0 -24 -4 -30 -22 -30 l-23 -1 23 -18 c15 -14 22 -30 22
-55 0 -24 5 -36 14 -36 20 0 33 119 17 149 -17 30 -31 26 -31 -9z"/>
<path d="M670 534 c-36 -64 -35 -97 1 -42 l24 37 26 -32 c36 -43 45 -30 13 17
-15 22 -24 46 -21 57 10 37 -11 19 -43 -37z"/>
<path d="M1178 583 c-32 -8 -20 -25 12 -18 26 6 29 4 24 -12 -4 -10 -21 -33
-37 -50 -37 -40 -28 -57 11 -20 l27 26 33 -20 c39 -25 43 -9 5 20 -23 16 -26
23 -17 38 6 10 22 20 35 23 21 5 22 7 6 13 -20 8 -71 8 -99 0z"/>
<path d="M410 570 c0 -5 14 -10 30 -10 38 0 38 -10 -1 -55 -37 -42 -31 -61 7
-23 l26 26 41 -24 c56 -31 67 -19 17 17 -45 33 -48 52 -7 57 55 7 25 22 -43
22 -40 0 -70 -4 -70 -10z"/>
<path d="M980 557 c0 -22 -5 -27 -25 -27 -19 0 -25 5 -26 23 -1 21 -1 21 -9
-3 -4 -14 -8 -47 -9 -73 l-1 -48 43 3 42 3 3 64 c2 36 -2 69 -7 74 -8 8 -11 3
-11 -16z m-2 -79 c-2 -25 -8 -34 -25 -36 -20 -3 -23 1 -23 32 0 32 3 36 26 36
23 0 25 -3 22 -32z"/>
<path d="M464 451 c-6 -27 -10 -31 -41 -31 -23 0 -33 -4 -30 -12 5 -17 189
-17 194 -1 3 8 -14 15 -46 19 -40 5 -51 10 -51 25 0 32 -20 32 -26 0z"/>
<path d="M661 423 c-7 -14 -8 -29 -4 -33 11 -9 183 0 183 10 0 11 -82 23 -120
18 -24 -4 -30 -1 -30 14 0 26 -15 22 -29 -9z"/>
<path d="M1180 431 c-5 -11 -10 -27 -10 -37 0 -13 6 -15 31 -10 17 3 61 6 97
6 52 0 63 3 54 12 -7 7 -40 12 -77 13 -55 0 -65 3 -65 18 0 23 -17 22 -30 -2z"/>
</g>
</svg>
