<?xml version="1.0" encoding="utf-8"?>
<!-- Generator: Adobe Illustrator 27.5.0, SVG Export Plug-In . SVG Version: 6.00 Build 0)  -->
<svg version="1.1" id="Layer_1" xmlns="http://www.w3.org/2000/svg" xmlns:xlink="http://www.w3.org/1999/xlink" x="0px" y="0px"
	 viewBox="0 0 500 500" style="enable-background:new 0 0 500 500;" xml:space="preserve">
<g>
	<path d="M59.9,446.9C59.9,446.9,59.9,446.9,59.9,446.9c0.2,0.1,0.4,0.1,0.5,0.2C60.6,447.1,60.5,447,59.9,446.9z"/>
	<path d="M52.7,438.2C52.7,438.2,52.7,438.2,52.7,438.2c0,0.1,0,0.1,0,0.1c0,0.1,0,0.1,0,0.2C52.9,438.9,53,438.7,52.7,438.2z"/>
	<path d="M52.8,436.5C52.8,436.5,52.8,436.6,52.8,436.5c0,0.2,0,0.3,0,0.5C52.8,436.9,52.9,436.8,52.8,436.5z"/>
	<path d="M60.9,447.2C60.9,447.2,61,447.2,60.9,447.2c0.2,0,0.4,0,0.6,0C61.5,447.2,61.3,447.2,60.9,447.2z"/>
	<path d="M62.1,447.3c0,0,0.1,0,0.1,0c0.1,0,0.3,0,0.4-0.1C62.7,447.2,62.5,447.1,62.1,447.3z"/>
	<path d="M385.5,234.3C385.5,234.3,385.5,234.3,385.5,234.3c0.1,0,0.3,0,0.4,0.1c0,0,0.1,0,0.1,0
		C385.8,234.2,385.5,234.2,385.5,234.3z"/>
	<path d="M455,125.3c-1-2.1-2.3-4.1-3.6-6c-4.1-6.1-8.8-11.8-13.5-17.3c-11.5-13.4-24-26.2-37.3-37.9c-6-5.2-12.2-10.3-18.8-14.7
		c-4.9-3.2-10.3-6.3-16.3-6.6c-6.9-0.4-13.4,2.6-19.1,6.3c-5.8,3.7-11.6,7.6-17.4,11.4c-12.8,8.5-25.5,17.1-38.3,25.7
		c-2.6,1.8-5.2,3.5-7.8,5.3c-3.9-1.5-8.1-1.7-12-0.1c-9.9,3.9-17.5,14.7-14.8,25.4c0.5,1.9,1.2,3.6,2.1,5.2
		c-7.6,13.9-13.8,28.9-17.4,44.3c-0.1,0.5-0.2,0.9-0.3,1.4c-4.5,5.3-8.9,10.5-13.4,15.8c-1.5-1.5-3-3-4.5-4.5
		c-3.9-3.9-7.9-7.8-11.8-11.8c-4.5-4.4-8.8-9.5-14.4-12.7c-3.8-2.2-8-3.2-12.3-2.6c-4.1,0.6-7.6,3-10.5,5.8
		c-13.2,13.4-26.5,26.8-39.9,40c-9.3,9.3-18.7,18.4-28,27.7c-3.2,3.2-7,6.3-9,10.4c-1.7,3.4-2.1,6.9-1.5,10.6
		c0.6,3.7,2.5,7.1,4.7,10.1c3.3,4.4,7.3,8.3,11.1,12.2c5.1,5.2,10.2,10.3,15.3,15.4c2.7,2.7,5.3,5.3,8,8
		c-15.2,17.8-30.4,35.7-45.6,53.5c-6.1,7.2-12.2,14.4-18.4,21.6c-7.3,8.6-15.8,17.8-17,29.6c-0.5,5.5,0.7,10.7,2.9,15.6
		c-3.1,4-6.1,8-8.9,12.2c-3.6,5.2-6.2,11.9-3.7,18.2c2.3,5.8,7.4,11.2,13.2,13.4c6,2.3,12.3-0.5,17.4-3.7c4.2-2.7,8.2-5.6,12.3-8.4
		c2.9,1.5,5.9,2.8,9.1,3.4c3.3,0.6,6.4,0.8,9.7,0.2c2.8-0.5,5.5-1.6,8-2.9c5.4-2.7,10.2-6.5,14.8-10.3c7-5.9,13.9-11.9,20.9-17.9
		c18.6-15.8,37.2-31.5,55.8-47.2c1.3-1.1,2.5-2.1,3.8-3.2c2,2,3.9,3.9,5.9,5.9c5.4,5.4,10.8,10.7,16.2,16.1c2.9,2.9,5.8,5.8,8.7,8.6
		c5.4,5.3,11.8,11.1,19.9,9.8c5.9-0.9,10.3-5.8,14.3-9.8c9.2-9.1,18.2-18.3,27.3-27.5c12.7-12.8,25.5-25.7,38.4-38.3
		c3-2.9,6.5-5.8,8.2-9.7c1.8-4,2.2-8.4,0.9-12.6c-2.2-7-7.7-11.9-12.8-17c-6-6-11.9-11.9-17.9-17.9c4.5-3.9,9.1-7.7,13.6-11.6
		c1.2-0.3,2.3-0.8,3.3-1.2c1.7-0.6,3.3-1.2,5-1.9c3.9-1.5,7.8-3.2,11.6-4.9c7.7-3.5,15.3-7.4,22.6-11.6c0.9-0.5,1.7-1,2.6-1.5
		c0.9,0.6,1.8,1.1,2.8,1.5c4.4,1.9,9,2.2,13.5,0.3c4.5-1.9,8.2-5.3,11.1-9.2c2.7-3.6,4.4-8.3,3.8-12.8c-0.2-1.5-0.6-3-1.1-4.4
		c8.6-12.6,17.1-25.1,25.7-37.7c4.4-6.5,8.8-12.9,13.2-19.4c3.9-5.7,8.4-11.4,10.5-18.2C458,136,457.5,130.3,455,125.3z
		 M446.6,130.8C446.7,131.2,446.8,131.4,446.6,130.8L446.6,130.8z M446.3,130.1c0.1,0.2,0.2,0.4,0.3,0.6c0.2,0.6,0.4,1.2,0.6,1.9
		c0,0.1,0.1,0.3,0.1,0.5c0,0.3,0,0.6,0.1,0.8c0,0.4,0,0.8,0,1.2c-12,2.2-24,4.2-36,6.1c1-8,2.1-16,3-24c7-0.9,14.1-1.8,21.1-2.8
		c0.8,1,1.6,2,2.4,3c0.2,0.3,0.5,0.6,0.7,0.9c-1.1-1.4-0.1-0.1,0.1,0.2c0.5,0.7,1,1.3,1.5,2c1.6,2.2,3.2,4.5,4.6,6.8
		C445.3,128.2,445.8,129.1,446.3,130.1z M406.6,180.1c4.8-0.6,9.5-1.3,14.3-1.9c-5.4,7.9-10.9,15.9-16.3,23.8
		C405.2,194.7,405.9,187.4,406.6,180.1z M398.7,183.6c-0.7,6.7-1.2,13.4-1.7,20.1c-4.3-4.5-8.6-8.9-13-13.4
		c-2.1-2.1-4.2-4.3-6.3-6.4c7.1-1,14.2-1.9,21.3-2.9C398.9,181.9,398.8,182.8,398.7,183.6z M319.3,91.8c-0.4,0-0.8,0.1-1.2,0.1
		c-7.2,0.9-14.4,1.6-21.6,2.3c8.2-5.5,16.4-11.1,24.6-16.6C320.6,82.4,319.9,87.1,319.3,91.8z M318.3,99.4
		c-0.9,7.2-1.9,14.3-2.8,21.5c-4.3-4.3-8.7-8.7-13-13c-2.1-2.1-4.1-4.1-6.2-6.1C303.6,101.1,311,100.3,318.3,99.4z M410.1,87.9
		c-0.8,7.6-1.6,15.1-2.5,22.7c-5.7,0.7-11.3,1.5-17,2.2c-1.7,0.2-3.5,0.5-5.2,0.7c1-7.8,2-15.6,3-23.3
		C395.6,89.3,402.9,88.5,410.1,87.9z M378.5,108.3c-0.3,2.1-0.5,4.1-0.8,6.2c-8.1,1.1-16.2,2.1-24.2,3.2c1-7.8,2.1-15.6,3.3-23.4
		c8-1.1,16-2.2,23.9-3.2C380,96.8,379.3,102.6,378.5,108.3z M376.8,122.1c-1,8.2-2.1,16.3-3.1,24.5c-3,0.4-6,0.8-9,1.2
		c-5,0.6-10,1.2-15,1.8c0.9-8.1,1.9-16.2,2.9-24.3c3.1-0.4,6.1-0.8,9.2-1.2C366.7,123.5,371.8,122.8,376.8,122.1z M345.9,118.7
		c-2,0.3-3.9,0.5-5.9,0.8c-5.7,0.7-11.4,1.5-17.1,2.2c1-7.7,2-15.5,3.1-23.2c7.7-1,15.5-2,23.2-3.1
		C348,103.1,346.9,110.9,345.9,118.7z M344.9,126.3c-0.3,2.6-0.7,5.2-1,7.9c-0.6,4.6-1.1,9.2-1.6,13.8c-4.6-4.7-9.3-9.4-13.9-14.1
		c-1.6-1.6-3.2-3.2-4.7-4.8C330.7,128.2,337.8,127.3,344.9,126.3z M372.7,154.3c-0.2,1.6-0.4,3.3-0.6,4.9
		c-0.7,5.6-1.4,11.2-2.1,16.8c-4.1-4.1-8.1-8.3-12.2-12.4c-2.2-2.2-4.4-4.4-6.6-6.6C358.4,156.1,365.5,155.2,372.7,154.3z
		 M377.4,176.5c1-7.7,2-15.5,3-23.2c7.4-1,14.9-2.1,22.3-3.2c-1,7.8-1.9,15.6-2.8,23.4C392.3,174.5,384.8,175.5,377.4,176.5z
		 M381.3,145.6c0.4-2.8,0.7-5.6,1.1-8.4c0.7-5.4,1.4-10.7,2.1-16.1c7.4-1,14.8-1.9,22.3-2.9c-0.8,6.3-1.6,12.6-2.4,18.9
		c-0.2,1.8-0.5,3.6-0.7,5.3C396.2,143.6,388.7,144.6,381.3,145.6z M426.7,104.2c1,1.2,2.1,2.4,3.1,3.5c-4.8,0.6-9.7,1.3-14.5,1.9
		c0.6-5.3,1.2-10.6,1.8-15.9C420.3,97.1,423.5,100.6,426.7,104.2z M404.4,80.9c-5,0.5-10,1-15,1.6c0.6-4.5,1.2-9.1,1.7-13.6
		C395.6,72.8,400,76.8,404.4,80.9z M366,52.8C366,52.8,366,52.8,366,52.8c0.2,0,0.2,0,0.3,0c0.5,0.1,1,0.2,1.5,0.4
		c0.5,0.2,1,0.3,1.4,0.5c0.2,0.1,0.4,0.2,0.6,0.3c1.2,0.6,2.4,1.2,3.5,1.8c2.7,1.6,5.4,3.4,7.9,5.3c0.7,0.5,1.4,1,2.1,1.5
		c0.3,0.3,1.7,1.4,0.3,0.2c0.2,0.2,0.4,0.3,0.6,0.5c-0.9,6.7-1.7,13.4-2.6,20.1c-7.9,1-15.8,2.1-23.8,3.2c0.7-4.4,1.3-8.7,2.1-13.1
		c1.1-6.9,2.3-13.9,3.5-20.8C364.3,52.7,365.2,52.7,366,52.8z M350.9,58.1c1.2-0.8,2.4-1.6,3.7-2.3c0.3-0.2,0.6-0.3,0.9-0.5
		c-1.9,10.8-3.6,21.6-5.2,32.4c-7.8,1.1-15.5,2.1-23.3,3.1c0.8-6.2,1.6-12.4,2.5-18.6c4.6-3,9.1-6,13.7-9
		C345.7,61.5,348.3,59.8,350.9,58.1z M266.4,115.8C266.4,115.8,266.4,115.8,266.4,115.8C266,115.1,266.3,115.5,266.4,115.8z
		 M265.6,113.4c0,0.1,0.1,0.3,0.1,0.3C265.6,113.6,265.6,113.5,265.6,113.4z M269.1,134.2c1.2,1.2,2.3,2.4,3.5,3.6
		c-3.8,0.3-7.7,0.7-11.5,1c0.3-0.6,0.6-1.2,0.8-1.8c1.1-2.2,2.2-4.5,3.3-6.7C266.5,131.6,267.8,132.9,269.1,134.2z M362.4,228.1
		c2.1,2.1,4.1,4.1,6.2,6.2c-2.4,1.4-4.7,2.7-7.1,4C361.8,234.8,362.1,231.5,362.4,228.1C362.4,228.1,362.4,228.1,362.4,228.1z
		 M355.4,222c-7.1,1.5-14.1,2.8-21.2,3.9c0.5-6.4,0.9-12.9,1.4-19.3c0.1-1.6,0.2-3.2,0.4-4.8c0,0,0.1,0.1,0.1,0.1
		c6.5,6.4,12.9,12.9,19.4,19.3C355.5,221.4,355.4,221.7,355.4,222z M325,248c-4.7-3.9-9.4-7.9-13.9-11.9c5-0.4,10-0.9,14.9-1.5
		c-0.2,2.5-0.4,5-0.6,7.5C325.3,244,325.2,246,325,248z M259.5,180.5c-0.3-0.4-0.6-0.8-0.9-1.1c-1.1-1.4-2.2-2.9-3.3-4.3
		c3.6-0.3,7.3-0.5,10.9-0.8c-0.5,3.8-0.9,7.7-1.2,11.5c0,0.5-0.1,1.1-0.1,1.6c-0.9-1.1-1.7-2.2-2.6-3.2c-0.7-0.9-1.4-1.8-2.1-2.7
		C260.1,181.3,259.4,180.3,259.5,180.5z M257,148.3c0.2-0.6,0.5-1.2,0.7-1.8c4.5-0.4,8.9-0.8,13.4-1.2c-1.5,7.1-2.7,14.2-3.7,21.4
		c-5.4,0.4-10.8,0.8-16.2,1.2c-0.1,0-0.3,0-0.4,0.1C252.3,161.3,254.5,154.7,257,148.3z M271.8,195.8c0.5-7.4,1.2-14.8,2.1-22.1
		c8.4-0.6,16.9-1.3,25.3-1.9c-0.8,8.4-1.6,16.7-2.4,25.1c-3.3,0.3-6.6,0.7-9.9,1c-4.1,0.4-8.2,0.8-12.3,1.2
		C273.7,198.1,272.7,197,271.8,195.8z M296,204.5c-0.3,3.1-0.6,6.2-0.9,9.3c-0.2,2.2-0.4,4.5-0.7,6.7c-4.8-4.7-9.4-9.5-13.8-14.5
		C285.8,205.6,290.9,205,296,204.5z M314.7,228.2c-3.8,0.4-7.6,0.6-11.4,0.9c-0.7-0.6-1.4-1.3-2-1.9c0.8-7.8,1.5-15.6,2.3-23.4
		c6.2-0.6,12.3-1.2,18.5-1.8c2.1-0.2,4.2-0.4,6.3-0.6c-0.6,8.5-1.3,17.1-1.9,25.6C322.6,227.4,318.7,227.8,314.7,228.2z
		 M304.3,196.2c0.6-5.9,1.1-11.7,1.7-17.6c0.2-2.1,0.4-4.2,0.6-6.3c7.1,7.2,14.3,14.4,21.4,21.5
		C320.2,194.6,312.3,195.4,304.3,196.2z M275,166.2c0.7-4.6,1.5-9.2,2.3-13.9c0.5-2.5,1-5.1,1.5-7.6c0.2,0,0.3,0,0.5,0
		c6.5,6.6,12.9,13.2,19.4,19.7C290.8,165,282.9,165.6,275,166.2z M245,177.8c0.3,0.3,0.5,0.7,0.8,1c2.5,3.3,4.9,6.5,7.5,9.7
		c4.3,5.5,8.6,10.9,13.1,16.2c8.2,9.7,16.9,19,26.2,27.8c5,4.8,10.2,9.4,15.4,13.9c3,2.6,5.9,5.1,8.9,7.6c1.5,1.3,3,2.5,4.6,3.8
		c-3.5,3-7,6-10.6,9c-9.8-9.8-19.6-19.6-29.5-29.5c-10.2-10.2-20.5-20.5-30.7-30.7c-5.5-5.5-10.9-10.9-16.4-16.3
		C237.8,186.2,241.4,182,245,177.8z M187.9,161.7C188.1,161.7,188,161.7,187.9,161.7L187.9,161.7z M186.1,161.7c0,0,0.1,0,0.1,0
		C186.8,161.5,186.4,161.6,186.1,161.7z M184.3,162.2c-0.1,0.1-0.2,0.1-0.2,0.1C184.1,162.3,184.2,162.2,184.3,162.2z M184.5,162.1
		C184.8,161.9,184.7,162,184.5,162.1L184.5,162.1z M72.2,442.1c-2.4,1.6-4.7,3.1-7.3,4.4c0,0,0,0,0,0c-0.2,0.1-0.4,0.2-0.7,0.3
		c-0.5,0.2-1,0.3-1.5,0.4c0,0,0,0,0,0c0,0-0.1,0.1-0.3,0.1c0,0-0.1,0-0.1,0c-0.1,0-0.3,0-0.4,0.1c0.1,0,0.2-0.1,0.3-0.1
		c-0.2,0-0.4,0-0.6,0c0.1,0-0.1,0.1-0.5,0c0,0,0,0-0.1,0c-0.1,0-0.2,0-0.2,0c0.1,0,0.1,0,0.2,0c-0.2,0-0.3-0.1-0.5-0.1c0,0,0,0,0,0
		c-0.1,0-0.2,0-0.4-0.1c0,0,0,0,0,0c-0.1,0-0.1,0-0.2,0c0,0,0.1,0,0.1,0c-0.4-0.2-0.8-0.4-1.1-0.7c-0.2-0.1-0.3-0.2-0.5-0.3
		c0,0,0,0,0,0c-0.1-0.1-0.1-0.1-0.2-0.2c-0.9-0.8-1.8-1.6-2.6-2.5c-0.3-0.3-0.5-0.6-0.7-0.8c-0.4-0.5-0.2-0.3-0.1,0
		c-0.4-0.4-0.7-1-0.9-1.5c-0.2-0.3-0.3-0.6-0.4-0.8c-0.1-0.5-0.3-0.9-0.4-1.4c0,0,0-0.1,0-0.2c0-0.1,0-0.1,0-0.2
		c0-0.1,0-0.2-0.1-0.2c0,0,0,0.1,0.1,0.1c0-0.4,0.1-0.8,0.1-1.2c0,0.1-0.1,0.1,0-0.2c0-0.1,0-0.1,0-0.2c0-0.1,0-0.1,0-0.2
		c0,0.1,0,0.1,0,0.2c0.1-0.2,0.1-0.5,0.2-0.7c0-0.1,0.6-1.4,0.6-1.6c0-0.1,0.1-0.1,0.1-0.2c0.1-0.2,0.2-0.5,0.4-0.7
		c0.4-0.8,0.8-1.5,1.3-2.2c1.5-2.3,3.2-4.6,4.8-6.8c0.6-0.8,1.2-1.6,1.8-2.4c1.7,2.2,3.5,4.4,5.4,6.4c3.3,3.6,6.9,6.9,10.6,10
		C76,439.5,74.1,440.8,72.2,442.1z M149.1,403.6c-7.2,6.1-14.4,12.2-21.5,18.4c-1.5,1.3-2.9,2.5-4.4,3.8c-0.9,0.8-1.9,1.6-2.8,2.4
		c-0.5,0.4-1.1,0.9-1.6,1.3c-0.3,0.2-0.6,0.4-0.8,0.7c-0.1,0.1-0.3,0.2-0.4,0.3c0,0,0,0-0.1,0.1c-2.2,1.7-4.4,3.2-6.8,4.6
		c-1.1,0.6-2.3,1.2-3.4,1.8c0,0,0,0-0.1,0c0,0,0,0,0,0c-0.3,0.1-0.6,0.2-0.9,0.3c-0.6,0.2-1.3,0.4-2,0.6c-0.5,0.1-1.1,0.2-1.6,0.4
		c0,0,0,0,0,0c0,0,0,0,0,0c-0.2,0-0.5,0-0.7,0c-0.6,0-1.2,0-1.8,0c-0.3,0-0.5,0-0.8-0.1c-0.1,0-0.1,0-0.2,0c-0.1,0-0.1,0-0.2,0
		c-1.2-0.2-2.4-0.5-3.5-0.9c-0.4-0.1-1-0.3-1.5-0.5c-0.1,0-0.1-0.1-0.2-0.1c-0.4-0.2-0.8-0.4-1.2-0.6c-2.3-1.2-4.5-2.6-6.5-4.1
		c0,0-0.1-0.1-0.1-0.1c0,0-0.1-0.1-0.2-0.1c-0.2-0.2-0.4-0.3-0.6-0.5c-0.5-0.4-1.1-0.9-1.6-1.3c-1.1-0.9-2.1-1.9-3.1-2.8
		c-2.1-1.9-4.1-4-6-6c-0.3-0.4-0.7-0.7-1-1.1c2.9-1.1,5.8-2.2,8.6-3.4c0.9-0.4,1.7-0.8,2.2-1.7c0.5-0.8,0.7-2,0.4-2.9
		c-0.6-1.8-2.7-3.4-4.6-2.6c-3.8,1.5-7.7,3-11.5,4.5c-1.1-1.7-2.2-3.5-3-5.3c-0.1-0.2-0.2-0.4-0.3-0.6c9.4-3.2,18.8-6.7,28.1-10.4
		c1.9-0.8,3.2-2.5,2.6-4.6c-0.5-1.8-2.7-3.4-4.6-2.6c-9.2,3.7-18.5,7.1-27.8,10.3c0-0.4,0-0.8,0-1.3c0-0.6,0-1.2,0.1-1.7
		c0-0.3,0-0.6,0.1-0.9c0-0.1,0.1-0.2,0.1-0.3c0.2-1.1,0.6-2.2,0.9-3.2c7.3-3.1,14.6-6.2,21.9-9.3c1.9-0.8,2.3-3.5,1.3-5.1
		c-1.1-1.9-3.3-2.1-5.1-1.3c-3.9,1.7-7.8,3.3-11.7,5c0.2-0.3,0.4-0.6,0.7-0.8c0.4-0.5,0.8-1,1.2-1.4c0.9-1,1.7-2.1,2.6-3.1
		c5.7-6.7,11.4-13.4,17.1-20.1c15.3-18,30.6-35.9,45.9-53.9c1.1-1.2,2.1-2.5,3.2-3.7c1.8,1.8,3.6,3.6,5.4,5.4
		c7.7,7.7,15.4,15.4,23.2,23.1c7.8,7.8,15.6,15.6,23.4,23.4c2.7,2.7,5.3,5.3,8,8C184,374,166.5,388.8,149.1,403.6z M261.3,394.8
		c0,0-0.1,0.1-0.1,0.1C260.7,395.3,261,394.9,261.3,394.8z M339.3,314.9C339.3,314.9,339.3,314.9,339.3,314.9
		C339.3,314.7,339.4,314.3,339.3,314.9z M339.3,313.4C339.3,313.4,339.3,313.4,339.3,313.4C339.3,313.4,339.3,313.4,339.3,313.4z
		 M333.9,304.2c0.8,0.8,1.5,1.6,2.2,2.4c0,0,0.1,0.1,0.1,0.2c0,0-0.1-0.1-0.1-0.2c0.1,0.2,0.3,0.3,0.4,0.5c0.4,0.5,0.7,1,1,1.5
		c0.2,0.4,0.5,0.8,0.7,1.2c0.1,0.1,0.2,0.5,0.3,0.8c0-0.1,0-0.2,0.1,0.2c0,0.1,0,0.1,0.1,0.1c0,0,0,0,0.1,0c0,0,0,0,0,0
		c0.1,0.2,0.1,0.3,0.2,0.5c0.1,0.4,0.3,0.9,0.4,1.3c0,0,0,0.2,0.1,0.4c0,0.3,0,0.6,0,0.8c0,0.2-0.1,0.9-0.1,1.2c0,0.1,0,0.2-0.1,0.3
		c-0.1,0.4-0.2,0.8-0.4,1.2c0,0,0,0,0,0.1c0,0,0,0,0,0.1c-0.2,0.3-0.4,0.7-0.6,1c-0.1,0.2-0.3,0.4-0.5,0.7c0.1-0.1,0.1,0-0.1,0.3
		c0,0-0.1,0.1-0.1,0.1c0,0,0,0.1,0,0.1c0,0,0,0,0-0.1c-0.1,0.1-0.2,0.3-0.4,0.4c-0.3,0.3-0.6,0.6-0.9,1c-0.9,0.8-1.7,1.7-2.6,2.5
		c-1.6,1.6-3.2,3.1-4.8,4.7c-6.5,6.4-12.9,12.7-19.3,19.2c-11,11-21.9,22.1-32.9,33.2c-3.6,3.6-7.1,7.2-10.8,10.8
		c-0.6,0.6-1.2,1.2-1.8,1.8c-0.4,0.3-0.7,0.7-1.1,1c-0.3,0.3-0.7,0.6-1,0.9c-0.2,0.1-0.3,0.3-0.5,0.4c-0.6,0.2-1.4,1-2,1.3
		c-0.2,0.1-0.5,0.3-0.7,0.4c-0.1,0.1-0.3,0.1-0.4,0.2c-0.3,0.1-0.6,0.2-0.9,0.2c-0.2,0-0.5,0-0.7,0c-0.1,0-0.1,0-0.2,0
		c-0.5-0.2-1.2-0.4-1.7-0.5c0,0-0.1,0-0.1-0.1c-0.4-0.2-0.7-0.4-1.1-0.6c-0.2-0.1-2.2-1.3-2.1-1.4c0,0,0.7,0.6,0.3,0.2
		c-0.2-0.2-0.4-0.3-0.6-0.5c-0.4-0.3-0.8-0.7-1.3-1.1c-1.4-1.2-2.7-2.5-4-3.7c-1.3-1.2-2.5-2.5-3.8-3.7c-4.4-4.4-8.9-8.8-13.3-13.1
		c-6.3-6.3-12.7-12.6-19-18.9c-7.4-7.4-14.9-14.8-22.3-22.2c-7.7-7.7-15.4-15.4-23.1-23c-7.2-7.2-14.5-14.5-21.7-21.7
		c-5.9-5.9-11.9-11.9-17.8-17.9c-3.9-3.9-7.8-7.8-11.6-11.8c-0.5-0.6-1.1-1.1-1.6-1.7c-0.2-0.2-0.4-0.4-0.6-0.7
		c-0.1-0.1-0.3-0.3-0.4-0.4c-0.4-0.4-0.8-0.8-1.1-1.3c-0.2-0.2-0.4-0.5-0.6-0.7c0-0.1-0.4-0.5-0.5-0.6c0,0-0.1-0.1-0.1-0.1
		c-0.2-0.2-0.3-0.4-0.5-0.7c-0.3-0.4-0.6-0.9-0.9-1.3c-0.5-0.8-0.9-1.5-1.3-2.3c0-0.1-0.1-0.1-0.1-0.2c0-0.2-0.4-1-0.4-1.1
		c-0.1-0.3-0.2-0.6-0.3-1c0-0.1-0.1-0.4-0.1-0.6c0-0.1,0-0.2,0-0.3c0-0.3,0-0.7,0-1c0,0,0-0.1,0-0.2c0-0.2,0.1-0.6,0.1-0.7
		c0.1-0.3,0.1-0.5,0.2-0.8c0.3-0.5,0.5-1.1,0.8-1.6c0.1-0.2,0.3-0.4,0.5-0.7c0.4-0.5,0.9-1,1.3-1.4c0.6-0.6,1.1-1.1,1.7-1.7
		c1.4-1.4,2.9-2.9,4.3-4.3c4.1-4,8.1-8,12.2-12c11.6-11.5,23.2-23,34.8-34.5c6.7-6.7,13.3-13.4,19.9-20.1c0.4-0.4,0.7-0.7,1.1-1.1
		c0.1-0.1,0.2-0.2,0.4-0.3c0.7-0.5,1.4-0.9,2.1-1.3c0.2-0.1,0.4-0.1,0.3-0.1c0.3-0.1,0.7-0.2,1.1-0.3c0,0,0.1,0,0.1,0
		c0.3,0.1,1.1-0.1,1.3-0.1c0.1,0,0.1,0,0.2,0c0.2,0.1,0.8,0.1,1,0.2c0.4,0.1,0.8,0.2,1.1,0.3c0,0,0.2,0.1,0.4,0.1
		c0.1,0,0.1,0.1,0.2,0.1c0.8,0.4,1.6,0.8,2.3,1.3c0.4,0.3,0.8,0.5,1.2,0.8c0.1,0.1,0.1,0.1,0.2,0.1c0.2,0.2,0.5,0.4,0.7,0.6
		c4,3.4,7.7,7.4,11.4,11.1c5.8,5.7,11.5,11.5,17.3,17.2c0.2,0.3,0.4,0.5,0.6,0.7c0.1,0.1,0.3,0.3,0.5,0.4c2.3,2.3,4.6,4.5,6.8,6.8
		c9.8,9.8,19.6,19.6,29.4,29.3c10,10,20.1,20.1,30.1,30.1c2.7,2.7,5.4,5.4,8,8c-1.9,0.5-3.8,0.8-5.7,1.1c-0.4,0-0.7,0.1-1.1,0.1
		c-1,0.1-1.9,0.3-2.7,1.1c-0.7,0.7-1.1,1.7-1.1,2.7c0.1,1.9,1.7,4,3.8,3.8c4.4-0.5,8.7-1.3,12.8-2.7c2,2,4,4,6,6
		c-6.7,1.9-13.3,4-19.8,6.3c-1.9,0.7-3.2,2.6-2.6,4.6c0.5,1.8,2.7,3.3,4.6,2.6c7.9-2.8,15.9-5.3,23.9-7.4c0.3,0.3,0.5,0.5,0.8,0.8
		c1.6,1.6,3.1,3.1,4.7,4.7c-3.7,1.5-7.3,3-11,4.5c-0.9,0.4-1.7,0.8-2.2,1.7c-0.5,0.8-0.7,2-0.4,2.9c0.6,1.7,2.7,3.4,4.6,2.6
		c4.9-2,9.8-4,14.7-6c0.3,0.3,0.5,0.6,0.8,0.8C330.5,300.8,332.2,302.5,333.9,304.2z M349.9,244.1c-2,0.9-4,1.9-6.1,2.8
		c-0.5,0.2-1,0.4-1.5,0.7c-0.1,0.1-0.8,0.3-1,0.4c-0.8,0.3-1.7,0.7-2.5,1c-2.1,0.9-4.3,1.7-6.5,2.4c0.4-6,0.9-12,1.3-18
		c5.4-0.8,10.8-1.7,16.2-2.7c1.6-0.3,3.3-0.7,4.9-1c-0.4,4.2-0.7,8.3-1.1,12.5C352.4,242.8,351.1,243.5,349.9,244.1z M397.3,225.7
		C397.3,225.7,397.3,225.7,397.3,225.7C397.4,225.5,397.6,225,397.3,225.7z M397.2,225.8c-0.1,0.2-0.2,0.4-0.3,0.6
		c-0.2,0.4-0.5,0.8-0.8,1.3c-0.1,0.2-0.3,0.4-0.4,0.6c0,0.1-0.2,0.2-0.3,0.3c-0.1,0.1-0.1,0.2-0.2,0.2c-0.2,0.2-0.4,0.4-0.5,0.6
		c-0.4,0.4-0.8,0.9-1.2,1.3c-0.4,0.3-0.7,0.7-1.1,1c-0.2,0.2-0.4,0.3-0.5,0.5c-0.1,0.1-0.2,0.2-0.2,0.3c-0.6,0.5-1.4,0.8-1.9,1.1
		c-0.2,0.1-1.4,0.8-0.7,0.3c0.7-0.4-0.5,0.1-0.7,0.2c-0.3,0.1-0.6,0.1-0.8,0.2c-0.2,0-0.4,0.1-0.6,0.1c-0.3,0-0.6,0-0.9,0
		c0,0,0.1,0,0.1,0.1c0,0-0.1,0-0.2-0.1c-0.1,0-0.1,0-0.2,0c-0.2,0-0.3,0-0.3-0.1c-0.4-0.1-0.8-0.2-1.2-0.3c-0.1,0-0.3-0.1-0.4-0.1
		c0,0-0.1,0-0.1-0.1c-0.8-0.4-1.7-0.9-2.4-1.4c-0.2-0.1-0.9-0.7-0.9-0.7c-0.5-0.4-1-0.8-1.5-1.3c-5-4.7-9.8-9.6-14.6-14.5
		c-5.5-5.4-10.9-10.9-16.4-16.3c-11.6-11.6-23.2-23.2-34.8-34.9c-10.5-10.6-21.1-21.2-31.5-31.9c-4-4.1-8.1-8.3-12.1-12.5
		c-0.2-0.3-0.5-0.5-0.7-0.8c-0.2-0.2-0.3-0.4-0.5-0.6c0,0-0.1-0.1-0.2-0.2c-0.1-0.1-0.2-0.2-0.2-0.3c-0.1-0.2-0.3-0.4-0.4-0.6
		c-0.3-0.5-0.6-0.9-0.8-1.4c-0.1-0.2-0.2-0.3-0.3-0.5c0-0.3-0.4-0.9-0.4-1.2c-0.1-0.4-0.2-0.9-0.3-1.3c0-0.1,0-0.2-0.1-0.2
		c0-0.1,0-0.3,0-0.3c0-0.5,0-0.9,0-1.4c0-0.2,0-0.3,0-0.5c0.1-0.4,0.2-0.9,0.3-1.3c0.1-0.2,0.1-0.5,0.2-0.7c0.1-0.3,0.1-0.4,0.1-0.5
		c0.2-0.4,0.5-0.8,0.6-0.9c0.3-0.5,0.5-0.9,0.8-1.4c0.1-0.2,0.3-0.4,0.4-0.5c0,0,0.1-0.1,0.1-0.1c0.5-0.5,0.9-1,1.4-1.5
		c0.4-0.4,0.9-0.9,1.4-1.3c0,0,0.2-0.2,0.3-0.3c0.1-0.1,0.3-0.3,0.4-0.3c0.7-0.5,1.6-1.1,2.4-1.5c0.1,0,0.1,0,0.3-0.1
		c0.2-0.1,0.4-0.1,0.7-0.2c0.3-0.1,0.8-0.1,1.2-0.2c0.2,0,0.3,0,0.5,0c0.2,0,0.4,0,0.7,0c0.1,0,0.2,0,0.3,0c0.1,0,0.2,0,0.2,0
		c0.2,0,0.4,0.1,0.7,0.2c0.4,0.1,0.7,0.2,1,0.3c0.2,0.1,0.5,0.2,0.6,0.3c0.6,0.3,1.1,0.6,1.6,1c0.2,0.2,1.1,0.9,0.8,0.6
		c0.4,0.3,0.7,0.6,1.1,0.9c0.4,0.3,0.7,0.7,1.1,1.1c2.9,2.8,5.7,5.6,8.6,8.4c8.1,8,16.2,16.1,24.2,24.2c9.5,9.5,18.9,19.1,28.3,28.6
		c8.8,8.9,17.6,17.9,26.4,26.9c6.2,6.3,12.4,12.6,18.5,19c0.9,0.9,1.7,1.8,2.6,2.7c0.8,0.8,1.6,1.6,2.3,2.5c0.1,0.1,0.5,0.7,0.6,0.9
		c0.3,0.5,0.6,1,0.9,1.5c0,0,0.1,0.1,0.1,0.2c0,0.1,0.1,0.2,0.1,0.3c0.2,0.4,0.3,0.9,0.4,1.3c0,0.2,0.1,0.3,0.1,0.5
		c0,0.4,0.1,0.9,0,1.3c0,0.1,0,0.3,0,0.4c-0.1,0.3-0.2,0.9-0.3,1.2C397.5,224.9,397.2,225.5,397.2,225.8z M397.9,223.7
		C397.8,224.2,397.8,224,397.9,223.7L397.9,223.7z M429.5,165.6c-1,1.4-1.9,2.8-2.9,4.2c-6.4,0.9-12.8,1.7-19.1,2.6
		c0.3-2.9,0.7-5.8,1-8.7c0.6-4.9,1.2-9.9,1.8-14.8c5.5-0.9,11.1-1.7,16.6-2.6c5.9-1,11.8-2,17.7-3c-0.7,1.3-1.6,2.6-2.4,3.8
		C438,153.3,433.7,159.5,429.5,165.6z"/>
	<path d="M200.1,226.6c2.6,0.1,5.1-2.4,5-5c-0.1-2.8-2.2-4.8-5-5c-8.3-0.5-16.6-1.1-24.9-1.6c3.4-3.5,6.8-7,10.1-10.5
		c1.8-1.9,2-5.2,0-7.1c-2-1.8-5.1-2-7.1,0c-12,12.4-24,24.7-35.9,37.1c-1.8,1.9-2,5.2,0,7.1c2,1.8,5.1,2,7.1,0
		c3.7-3.9,7.5-7.7,11.2-11.6c0.1,0.6,0.2,1.2,0.3,1.8c0,0.4,0.1,0.7,0.1,1.1c0,0,0,0,0,0c0,0,0,0.1,0,0.1c0.2,1.7,0.4,3.3,0.6,5
		c0.7,6.5,1.3,13,1.6,19.5c0.1,2.6,2.2,5.1,5,5c2.6-0.1,5.1-2.2,5-5c-0.5-11-1.6-22-3.4-32.9C180,225.1,190.1,226,200.1,226.6z"/>
	<path d="M221.1,275.7c6.4-1.6,11.6-6.9,14-12.9c2.4-5.8,1.2-12.1-2.3-17.1c-3.8-5.3-8.8-10.1-14.3-13.5c-1.9-1.2-4.5-0.8-6.1,0.8
		c-12.3,12.6-24.8,25-37.1,37.6c-1.8,1.9-2,5.2,0,7.1c2,1.8,5.1,2,7.1,0c4.7-4.8,9.4-9.5,14.1-14.3c2.2,3.2,5.2,5.9,8.4,8.2
		C209.4,274.8,215.4,277.1,221.1,275.7z M226.4,257.2c0-0.1,0-0.2,0-0.3C226.4,257,226.4,257.1,226.4,257.2z M226.4,255.8
		C226.5,256,226.5,255.9,226.4,255.8L226.4,255.8z M226.4,255.6c0-0.2-0.1-0.3,0-0.3C226.4,255.2,226.4,255.4,226.4,255.6z
		 M217.3,266.2c-0.1,0-0.3-0.1-0.4-0.1c0,0,0,0-0.1,0c-0.1,0-0.3,0-0.3-0.1c0,0,0,0-0.1,0c-0.5-0.1-1-0.2-1.5-0.4
		c-0.1,0-0.7-0.3-1.1-0.4c0.2,0.1,0.3,0.2-0.1,0c-0.1,0-0.2-0.1-0.2-0.1c0,0-0.1,0-0.1,0c0,0,0,0,0,0c-0.2-0.1-0.4-0.2-0.6-0.3
		c-0.5-0.3-1-0.5-1.5-0.8c-0.6-0.3-1.1-0.7-1.7-1.1c-0.2-0.2-0.4-0.3-0.7-0.5c-0.1-0.1-0.1-0.1-0.2-0.2c-0.9-0.8-1.9-1.6-2.7-2.5
		c-0.4-0.4-0.7-0.8-1.1-1.2c0,0,0,0,0,0c0,0,0,0,0-0.1c0,0-0.1-0.1-0.1-0.1c-0.2-0.2-0.2-0.3-0.2-0.3c-0.1-0.1-0.2-0.2-0.2-0.3
		c-0.3-0.5-0.6-1-0.9-1.5c0,0,0-0.1-0.1-0.1c4.3-4.4,8.6-8.7,12.9-13.1c0.5,0.4,0.9,0.8,1.4,1.2c1.8,1.6,3.6,3.4,5.2,5.2
		c0.2,0.2,0.4,0.5,0.6,0.7c0,0,0,0,0,0c0.3,0.4,0.6,0.8,0.8,1.2c0.3,0.4,0.6,0.9,0.8,1.4c0.1,0.2,0.2,0.4,0.4,0.7
		c0,0.1,0.1,0.1,0.1,0.2c0-0.1,0-0.1,0-0.2c0.1,0.5,0.3,0.9,0.4,1.3c0.1,0.3,0.1,0.6,0.2,0.8c0,0,0,0,0,0c0,0.5,0,1.2,0,1.3
		c0,0.1,0,0.2,0,0.3c0,0.1,0,0.1,0,0.1c-0.1,0.3-0.1,0.5-0.1,0.5c-0.1,0.6-0.3,1.1-0.5,1.6c0,0.1,0,0.1,0,0.2
		c-0.1,0.1-0.2,0.3-0.2,0.4c-0.2,0.5-0.5,0.9-0.8,1.3c-0.2,0.3-0.4,0.6-0.6,0.9c0.1-0.2,0.2-0.3,0.3-0.5c-0.1,0.2-0.3,0.4-0.5,0.5
		c-0.4,0.4-0.8,0.9-1.2,1.3c-0.2,0.2-0.4,0.3-0.5,0.5c0,0,0,0-0.1,0.1c0,0,0,0,0,0c-0.4,0.3-0.9,0.6-1.3,0.9
		c-0.3,0.1-0.5,0.3-0.8,0.4c-0.1,0-0.3,0.1-0.4,0.2c-0.3,0.1-0.8,0.2-1.1,0.3c-0.1,0-0.1,0-0.2,0c0,0,0,0-0.1,0c-0.4,0-0.8,0-1.2,0
		C217.1,266.1,217.2,266.2,217.3,266.2z"/>
	<path d="M216.5,266c0.1,0,0.3,0,0.4,0.1c0,0,0.1,0,0.1,0C216.5,266,216.4,266,216.5,266z"/>
	<path d="M213.5,265.1C213.5,265.1,213.5,265.1,213.5,265.1c0.1,0,0.2,0.1,0.4,0.1C213.8,265.2,213.6,265.1,213.5,265.1z"/>
	<path d="M225.8,253.6C226,254.4,226,254,225.8,253.6L225.8,253.6z"/>
	<path d="M204.8,258.1c0.1,0.2,0.3,0.3,0.3,0.4c0,0,0,0,0,0C205,258.2,204.8,258,204.8,258.1z"/>
	<path d="M281.6,331.2c0.1,0,0.3,0,0.4,0.1c0,0,0.1,0,0.1,0C281.6,331.1,281.5,331.1,281.6,331.2z"/>
	<path d="M283.6,297.3c-1.9-1.2-4.5-0.8-6.1,0.8c-12.3,12.6-24.8,25-37.1,37.6c-1.8,1.9-2,5.2,0,7.1c2,1.8,5.1,2,7.1,0
		c4.7-4.8,9.4-9.5,14.1-14.3c2.2,3.2,5.2,5.9,8.4,8.2c4.6,3.2,10.6,5.5,16.3,4.1c6.4-1.6,11.6-6.9,14-12.9
		c2.4-5.8,1.2-12.1-2.3-17.1C294.1,305.6,289.1,300.8,283.6,297.3z M290.8,324.7c0,0.1,0,0.1,0,0.2c-0.1,0.1-0.2,0.3-0.2,0.4
		c-0.2,0.5-0.5,0.9-0.8,1.3c-0.2,0.3-0.4,0.6-0.6,0.9c0.1-0.2,0.2-0.3,0.3-0.5c-0.1,0.2-0.3,0.4-0.5,0.5c-0.4,0.4-0.8,0.9-1.2,1.3
		c-0.2,0.2-0.4,0.3-0.5,0.5c0,0,0,0-0.1,0.1c0,0,0,0,0,0c-0.4,0.3-0.9,0.6-1.3,0.9c-0.3,0.1-0.5,0.3-0.8,0.4c-0.1,0-0.3,0.1-0.4,0.2
		c-0.3,0.1-0.8,0.2-1.1,0.3c-0.1,0-0.1,0-0.2,0c0,0,0,0-0.1,0c-0.4,0-0.8,0-1.2,0c0.1,0,0.2,0,0.3,0.1c-0.1,0-0.3-0.1-0.4-0.1
		c0,0,0,0-0.1,0c-0.1,0-0.3,0-0.3-0.1c0,0,0,0-0.1,0c-0.5-0.1-1-0.2-1.5-0.4c-0.1,0-0.7-0.3-1.1-0.4c0.2,0.1,0.3,0.2-0.1,0
		c-0.1,0-0.2-0.1-0.2-0.1c0,0-0.1,0-0.1,0c0,0,0,0,0,0c-0.2-0.1-0.4-0.2-0.6-0.3c-0.5-0.3-1-0.5-1.5-0.8c-0.6-0.3-1.1-0.7-1.7-1.1
		c-0.2-0.2-0.4-0.3-0.7-0.5c-0.1-0.1-0.1-0.1-0.2-0.2c-0.9-0.8-1.9-1.6-2.7-2.5c-0.4-0.4-0.7-0.8-1.1-1.2c0,0,0,0,0,0c0,0,0,0,0-0.1
		c0,0-0.1-0.1-0.1-0.1c-0.2-0.2-0.2-0.3-0.2-0.3c-0.1-0.1-0.2-0.2-0.2-0.3c-0.3-0.5-0.6-1-0.9-1.5c0,0,0-0.1-0.1-0.1
		c4.3-4.4,8.6-8.7,12.9-13.1c0.5,0.4,0.9,0.8,1.4,1.2c1.8,1.6,3.6,3.4,5.2,5.2c0.2,0.2,0.4,0.5,0.6,0.7c0,0,0,0,0,0
		c0.3,0.4,0.6,0.8,0.8,1.2c0.3,0.4,0.6,0.9,0.8,1.4c0.1,0.2,0.2,0.4,0.4,0.7c0,0.1,0.1,0.1,0.1,0.2c0-0.1,0-0.1,0-0.2
		c0.1,0.5,0.3,0.9,0.4,1.3c0.1,0.3,0.1,0.6,0.2,0.8c0,0,0,0,0,0c0,0.5,0,1.2,0,1.3c0,0.1,0,0.2,0,0.3c0,0.1,0,0.1,0,0.1
		c-0.1,0.3-0.1,0.5-0.1,0.5C291.2,323.6,291,324.1,290.8,324.7z M291.4,320.3c0,0,0,0.1,0,0.3C291.5,320.5,291.4,320.3,291.4,320.3z
		 M291.5,322.4c0-0.1,0-0.2,0-0.3C291.5,322.1,291.5,322.2,291.5,322.4z M291.5,320.9C291.6,321.1,291.6,321,291.5,320.9
		L291.5,320.9z"/>
	<path d="M278.6,330.2C278.6,330.2,278.6,330.2,278.6,330.2c0.1,0,0.2,0.1,0.4,0.1C278.9,330.3,278.7,330.2,278.6,330.2z"/>
	<path d="M269.9,323.2c0.1,0.2,0.3,0.3,0.3,0.4c0,0,0,0,0,0C270.2,323.3,269.9,323.1,269.9,323.2z"/>
	<path d="M290.9,318.7C291.1,319.5,291.1,319.1,290.9,318.7L290.9,318.7z"/>
	<path d="M244.8,278.4C244.8,278.4,244.8,278.4,244.8,278.4c-0.2,0.1-0.3,0.1-0.4,0.2C244.4,278.6,244.6,278.5,244.8,278.4z"/>
	<path d="M242.5,279.7C242.4,279.7,242.4,279.8,242.5,279.7c-0.2,0.2-0.3,0.3-0.4,0.3C241.9,280.1,242,280.1,242.5,279.7z"/>
	<path d="M224.3,297.4C224.3,297.4,224.3,297.4,224.3,297.4C224.3,297.4,224.3,297.4,224.3,297.4z"/>
	<path d="M256.6,283C256.4,282.8,256.2,282.6,256.6,283L256.6,283z"/>
	<path d="M254.1,280.4c0,0-0.1-0.1-0.1-0.1c0,0-0.1,0-0.1-0.1c0,0,0,0,0,0C254.4,280.8,254.3,280.6,254.1,280.4z"/>
	<path d="M222.7,300c0,0.1-0.1,0.2-0.1,0.2c0,0,0,0.1,0,0.1c0,0,0,0,0,0C222.9,299.7,222.9,299.8,222.7,300z"/>
	<path d="M257.6,293.5c0.1-0.1,0.1-0.2,0.2-0.3c0-0.1,0.1-0.1,0.1-0.2C257.3,293.7,257.4,293.7,257.6,293.5z"/>
	<path d="M249.4,316.8c4.8-4.8,9.6-9.6,14-14.7c1.4-1.6,2.8-3.2,3.9-5c1.3-2.4,2-5.3,1.9-8.1c-0.5-11-11-21.7-22.3-21
		c-3.2,0.2-6.3,1.1-9,2.9c-1.7,1.1-3.3,2.5-4.9,3.9c-4.2,3.7-8.2,7.5-12,11.5c-3.9,4.1-7.7,8.4-8.8,14.2c-1,5.4-0.2,11,2.8,15.7
		c2.8,4.4,7.3,8,12.4,8.9c6.2,1.2,12.4-0.6,17.4-4.4C246.4,319.4,247.9,318.2,249.4,316.8z M239.6,312.1
		C239.6,312.1,239.6,312.1,239.6,312.1C239.6,312.2,239.5,312.2,239.6,312.1C239.5,312.2,239.6,312.2,239.6,312.1
		c-1.2,0.8-2.4,1.6-3.6,2.2c0,0-0.1,0-0.1,0c-0.2,0-0.7,0.3-0.8,0.3c-0.5,0.2-1,0.3-1.5,0.4c-0.3,0.1-0.6,0.1-0.8,0.2
		c0.1,0,0.1,0,0.2,0c-0.1,0-0.2,0-0.3,0c-0.1,0-0.2,0-0.3,0c-0.3,0-0.7,0.1-1,0.1c-0.5,0-1.1-0.1-1.6-0.1c0.3,0,0.5,0,0.6,0
		c-0.2,0-0.6,0-0.8-0.1c-0.5-0.1-1-0.3-1.5-0.4c0,0-0.1,0-0.2-0.1c-0.1,0-0.2-0.1-0.2-0.1c-0.4-0.2-0.9-0.5-1.3-0.7
		c-0.1,0-0.1-0.1-0.2-0.1c0,0,0,0,0,0.1c0,0,0,0,0-0.1c-0.1,0-0.1-0.1-0.2-0.1c-0.5-0.3-0.3-0.3-0.2-0.2c-0.3-0.2-0.7-0.5-0.7-0.6
		c-0.3-0.3-0.6-0.7-1-1.1c-0.1-0.1-0.2-0.2-0.2-0.3c-0.3-0.4-0.5-0.8-0.7-1.2c-0.2-0.3-0.3-0.7-0.5-1c-0.1-0.3-0.2-0.5-0.3-0.8
		c-0.1-0.4-0.2-0.8-0.3-1.2c-0.1-0.5-0.2-2.2-0.1-0.5c-0.1-1.1-0.2-2.1-0.1-3.2c0-0.2,0-0.3,0.1-0.5c0.1-0.5,0.2-0.9,0.3-1.4
		c0.1-0.4,0.3-0.9,0.4-1.3c0,0,0,0.1-0.1,0.1c0-0.1,0.1-0.1,0.1-0.2c0-0.1,0.1-0.2,0.1-0.2c0.1-0.2,0.2-0.4,0.3-0.6
		c0.2-0.4,0.5-0.9,0.7-1.3c0.2-0.3,0.3-0.5,0.5-0.7c0,0,0,0,0,0c0,0,0,0,0,0c0,0,0,0,0,0c0.6-0.8,0.2-0.2,0,0c0.4-0.3,2-2.3,2.2-2.5
		c3.5-3.7,7.2-7.3,10.9-10.7c1.5-1.4,3-2.7,4.5-4c0,0,0.1,0,0.1-0.1c0.1-0.1,0.2-0.2,0.3-0.3c0.2-0.1,0.3-0.2,0.5-0.4
		c-0.1,0.1-0.3,0.2-0.4,0.3c0,0,0,0,0,0c0.5-0.4,1.1-0.7,1.6-1c0.1,0,0.2-0.1,0.3-0.1c0,0,0.1-0.1,0.4-0.2c0.1,0,0.1-0.1,0.2-0.1
		c0,0-0.1,0.1-0.1,0.1c0,0,0,0,0,0c0.5-0.2,1.1-0.3,1.6-0.4c0.1,0,0.2,0,0.4,0c0.5,0,1.1,0,1.6,0c0,0,0.1,0,0.1,0
		c0.2,0,0.4,0.1,0.4,0.1c0.5,0.1,1.1,0.3,1.6,0.4c0.2,0.1,0.3,0.1,0.5,0.2c0.9,0.5,1.9,1,2.7,1.6c0,0-0.1-0.1-0.1-0.1
		c0.1,0.1,0.1,0.1,0.2,0.2c0,0,0.1,0.1,0.1,0.1c0.1,0.1,0.2,0.2,0.3,0.3c0.4,0.3,0.7,0.6,1,1c0.4,0.4,0.8,0.8,1.1,1.2
		c0.1,0.1,0.2,0.3,0.4,0.4c-0.1-0.1-0.2-0.2-0.2-0.2c0.1,0.1,0.2,0.2,0.3,0.3c0.6,0.8,1,1.7,1.5,2.6c0.1,0.1,0.1,0.3,0.2,0.4
		c0.2,0.5,0.3,1.1,0.5,1.6c0,0.2,0.1,0.3,0.1,0.5c0,0.6,0,1.1,0,1.7c0,0,0,0,0,0c0,0.1-0.1,0.3-0.1,0.4c-0.1,0.2-0.1,0.5-0.2,0.7
		c0,0.1-0.1,0.3-0.2,0.4c-0.1,0.2-0.2,0.5-0.4,0.7c-0.1,0.2-0.3,0.4-0.4,0.6c0.1-0.1,0.1-0.1,0.2-0.2c-0.1,0.1-0.2,0.2-0.3,0.4
		c0,0,0,0,0,0c-0.1,0.1-0.1,0.2-0.2,0.2c0,0,0,0,0,0c-0.3,0.4-0.6,0.8-1,1.2c-4.5,5.2-9.4,10.1-14.3,15c-0.6,0.6-1.2,1.2-1.9,1.7
		c-0.2,0.1-0.3,0.3-0.5,0.4C239.9,311.9,239.7,312,239.6,312.1z"/>
	<path d="M239.6,312.1C239.6,312.1,239.6,312.1,239.6,312.1c0.1-0.1,0.2-0.2,0.3-0.3C239.9,311.8,239.9,311.9,239.6,312.1z"/>
	<path d="M225.8,313.4c0.2,0.1,0.3,0.2,0.3,0.3c0,0,0,0,0,0C226.1,313.6,225.9,313.5,225.8,313.4z"/>
	<path d="M232.3,315.4c0.1,0,0.2,0,0.3,0c0,0,0.1,0,0.1,0c0,0,0,0,0,0C232,315.3,232.1,315.4,232.3,315.4z"/>
	<path d="M230.3,315.3C230.5,315.3,230.6,315.3,230.3,315.3L230.3,315.3z"/>
	<path d="M336.2,306.8C336.4,307.1,336.3,307,336.2,306.8L336.2,306.8z"/>
	<path d="M337.5,318.9C337.5,318.9,337.5,318.9,337.5,318.9c0.1-0.1,0.1-0.2,0.2-0.4C337.6,318.6,337.5,318.7,337.5,318.9z"/>
	<path d="M338.6,311C338.6,311,338.6,311,338.6,311c-0.1-0.1-0.1-0.2-0.2-0.3C338.5,310.7,338.5,310.9,338.6,311z"/>
	<path d="M175.6,363.4c-1,0-1.9,0.4-2.7,1.1c-2.8,2.9-5.7,5.7-8.5,8.6c-0.7,0.7-1.1,1.7-1.1,2.7c0,0.9,0.4,2,1.1,2.7
		c0.7,0.7,1.7,1.1,2.7,1.1c1,0,1.9-0.4,2.7-1.1c2.8-2.9,5.7-5.7,8.5-8.6c0.7-0.7,1.1-1.7,1.1-2.7c0-0.9-0.4-2-1.1-2.7
		C177.6,363.8,176.6,363.3,175.6,363.4z"/>
	<path d="M195.2,185.2c0.7,0.7,1.7,1.1,2.7,1.1c0.9,0,2-0.4,2.7-1.1c0.7-0.7,1.1-1.7,1.1-2.7c0-1-0.4-2-1.1-2.7
		c-2.9-2.7-5.8-5.4-8.6-8.1c-0.7-0.7-1.7-1.1-2.7-1.1c-0.9,0-2,0.4-2.7,1.1c-0.7,0.7-1.1,1.7-1.1,2.7c0,1,0.4,2,1.1,2.7
		C189.4,179.8,192.3,182.5,195.2,185.2z"/>
	<path d="M263.7,374.1c-1,0-1.9,0.4-2.7,1.1c-2.5,2.4-5,4.8-7.5,7.1c-0.7,0.7-1.1,1.7-1.1,2.7c0,0.9,0.4,2,1.1,2.7
		c0.7,0.7,1.7,1.1,2.7,1.1c1,0,1.9-0.4,2.7-1.1c2.5-2.4,5-4.8,7.5-7.1c0.7-0.7,1.1-1.7,1.1-2.7c0-0.9-0.4-2-1.1-2.7
		C265.6,374.6,264.7,374.1,263.7,374.1z"/>
</g>
</svg>
