<?xml version="1.0" encoding="utf-8"?>
<!-- Generator: Adobe Illustrator 27.5.0, SVG Export Plug-In . SVG Version: 6.00 Build 0)  -->
<svg version="1.1" id="Layer_1" xmlns="http://www.w3.org/2000/svg" xmlns:xlink="http://www.w3.org/1999/xlink" x="0px" y="0px"
	 viewBox="0 0 500 500" style="enable-background:new 0 0 500 500;" xml:space="preserve">
<g>
	<path d="M268.8,119.3c0-0.1-0.1-0.1-0.1-0.2C268.7,119.2,268.7,119.3,268.8,119.3C268.8,119.3,268.8,119.3,268.8,119.3z"/>
	<path d="M368.7,303.9c0-0.1,0.1-0.3,0.1-0.4c0,0,0,0,0,0C368.7,303.8,368.7,303.9,368.7,303.9z"/>
	<path d="M379,297.5c-0.7-10.3-5-20.5-12.6-27.7c-7.5-7.1-18.1-10.3-28.3-9.6c-0.6,0-1.2,0.1-1.8,0.2c-0.1-2-0.5-4-1.1-6.1
		c-3.4-11.7-13.4-20.8-25.5-22.7c-5.5-0.9-11.1-0.6-16.4,1c-1.2-9.8-5.6-19.3-12.7-26.2c-4.2-4.1-9.2-7.2-14.9-8.7
		c-5.4-1.4-11-1.5-16.5-0.6c4.1-6.3,8.1-12.6,12.2-18.8c5.5-8.6,11.2-17.1,15.1-26.6c3.9-9.3,5.6-19.6,3.6-29.6
		c-1.8-9-7.4-17.2-15.4-21.9c-8-4.7-17.4-4.7-25.7-0.7c-7.7,3.8-13.5,10.7-18.5,17.5c-6,8.2-11.6,16.8-17.3,25.2
		c-1.3,2-2.7,3.9-4,5.9c-3.4-10.3-9-20-17-27.3c-10.6-9.6-26-15.1-39.9-10c-6.6,2.4-12.3,6.6-16.4,12.4c-4.4,6.3-5.6,13.9-4.5,21.4
		c1.1,7.6,4.8,14.7,8.2,21.5c0.8,1.7,1.7,3.4,2.5,5.1c0.3,0.7,0.7,1.5,1,2.2c0.2,0.4,0.3,0.8,0.5,1.2c0.1,0.2,0.2,0.4,0.3,0.6
		c1.3,3.3,2.5,6.7,3.6,10.1c1.1,3.5,2,7,2.7,10.6c0.4,1.8,0.7,3.7,1.1,5.5c0.1,0.9,0.3,1.7,0.4,2.6c0.1,0.5,0.1,1,0.2,1.5
		c0,0.1,0,0.3,0.1,0.4c0,0.1,0,0.1,0,0.2c0.9,7.2,1.3,14.4,1,21.6c0,1.2-0.1,2.4-0.2,3.7c-8.1,13.1-15.1,27.2-17.2,42.5
		c-1.9,13.7,0.6,27.4,4.6,40.5c4.4,14.5,10.7,28.4,18.2,41.5c7.2,12.6,15.8,24.4,25.4,35.3c-0.3,15.5-0.3,31-0.5,46.5
		c0,4.9-0.1,9.7-0.2,14.6c0,2.7,2.3,5,5,5c4.4,0,8.7,0,13.1,0c10.4,0,20.9-0.1,31.3-0.1c12.6,0,25.2-0.1,37.8-0.1
		c10.9,0,21.8-0.1,32.7-0.1c5.3,0,10.6,0.1,15.9-0.1c0.1,0,0.2,0,0.2,0c2.7,0,5-2.3,5-5c0-6.2,0.1-12.5,0.3-18.7
		c4.9-1.6,9.6-3.8,13.8-6.7c5.7-3.9,10.6-8.9,14.2-14.8c6-9.9,8.1-21.4,8.7-32.8c0.2-4.1,0.2-8.3,0.4-12.4c0-0.6,0.1-1.3,0.1-1.9
		c0-0.2,0-0.5,0.1-0.7c0-0.2,0-0.3,0-0.4c0.1-0.4,0.2-0.9,0.3-1.2c0.4-2,0.9-4,1.6-5.9c0.2-0.4,0.3-0.9,0.5-1.3
		c0.1-0.2,0.2-0.4,0.2-0.6c0,0,0.1-0.2,0.1-0.3c-0.3,0.8,0.1-0.3,0.2-0.4c0.1-0.2,0.2-0.4,0.3-0.6c0.2-0.5,0.5-1,0.7-1.6
		c0.9-1.9,1.9-3.7,3-5.5C367.3,330.8,380.2,316.2,379,297.5z M245.4,208.4c-0.2,0.1-0.4,0.2-0.4,0.2
		C245.1,208.5,245.3,208.5,245.4,208.4z M240.8,211c0,0-0.2,0.2-0.4,0.3C240.6,211.2,240.7,211.1,240.8,211z M142.3,169.8
		c-1.3-3.1-2.8-6.2-4.4-9.2c-0.8-1.6-1.6-3.2-2.3-4.8c-0.4-0.8-0.8-1.6-1.1-2.4c-0.1-0.3-0.3-0.6-0.4-0.9c0,0.1-0.4-1-0.5-1.2
		c-0.6-1.6-1.2-3.2-1.7-4.9c-0.2-0.8-0.4-1.6-0.6-2.5c-0.1-0.4-0.2-0.8-0.2-1.2c0-0.2-0.1-0.3-0.1-0.5c0-0.1,0-0.1,0-0.3
		c-0.1-1.5-0.2-3.1-0.1-4.6c0-0.1,0.1-0.6,0.1-0.8c0-0.3,0.1-0.5,0.1-0.8c0.2-0.8,0.4-1.6,0.6-2.4c0.1-0.3,0.2-0.7,0.3-1
		c0-0.1,0.1-0.2,0.1-0.3c0.2-0.5,0.2-0.4-0.1,0.2c0-0.6,0.7-1.4,0.9-1.9c0.3-0.6,0.7-1.2,1.1-1.8c0.2-0.3,0.4-0.5,0.6-0.8
		c0.1-0.1,0.2-0.3,0.4-0.4c0.8-1,1.7-1.9,2.7-2.8c0.3-0.2,0.5-0.5,0.8-0.7c0,0,0.1,0,0.1-0.1c0,0,0,0,0,0c0.7-0.5,1.4-1,2.1-1.4
		c1.1-0.7,2.4-1.5,3.6-1.9c0.1,0,0.3-0.1,0.3-0.1c0.3-0.1,0.7-0.2,1-0.4c0.8-0.3,1.6-0.5,2.4-0.7c0.7-0.2,1.4-0.3,2.1-0.4
		c0,0,0,0,0.1,0c0,0,0,0,0,0c0.4,0,0.7-0.1,1.1-0.1c1.5-0.1,3.1-0.1,4.6,0c0.4,0,0.8,0,1.2,0.1c-0.1,0-0.2-0.1-0.3-0.1
		c0.2,0,0.4,0.1,0.5,0.1c0.8,0.1,1.5,0.3,2.3,0.5c1.6,0.4,3.3,0.9,4.8,1.5c0.2,0.1,1.4,0.4,0.3,0.1c0.4,0.1,0.7,0.3,1.1,0.5
		c0.7,0.3,1.4,0.7,2.1,1.1c1.4,0.8,2.7,1.6,4,2.5c0.3,0.2,0.6,0.5,1,0.7c0,0,0,0,0,0c0.2,0.1,0.4,0.3,0.5,0.4
		c0.7,0.6,1.4,1.2,2.1,1.8c1.4,1.3,2.6,2.6,3.8,4c0.3,0.3,0.5,0.6,0.8,1c0.2,0.2,0.3,0.4,0.5,0.6c0,0,0,0,0.1,0.1
		c0.6,0.8,1.1,1.6,1.7,2.4c1,1.5,1.9,2.9,2.8,4.5c0.9,1.6,1.8,3.3,2.5,5c0.1,0.2,0.2,0.5,0.3,0.7c0,0,0.4,0.9,0.4,1.1
		c0.3,0.9,0.7,1.8,1,2.6c1,2.9,1.8,5.8,2.4,8.8c-2.4,3.5-4.7,6.9-7.1,10.4c-10.6,15.5-21.3,31-31.8,46.6c-0.4-8.6-1.7-17.2-3.7-25.5
		C147.4,183.3,145.2,176.5,142.3,169.8z M369,301c0,0.6-0.1,1.2-0.1,1.8c0,0.2,0,0.5-0.1,0.7c0,0,0,0,0-0.1c0,0,0,0.1,0,0.1
		c0,0,0,0,0,0.1c0,0.2-0.1,0.4-0.1,0.4c-0.2,0.8-0.2,1.7-0.4,2.5c-0.4,2-1,3.9-1.7,5.8c-0.2,0.5-0.4,1-0.6,1.5c0,0,0,0.1,0,0.1
		c0,0.1-0.1,0.2-0.1,0.3c-0.4,1-0.9,1.9-1.3,2.8c-3.7,7.4-8.7,14.1-13,21.2c-4.4,7.1-8.4,14.8-9.6,23.1c-0.7,4.7-0.6,9.4-0.8,14.2
		c-0.1,2.3-0.2,4.6-0.4,6.9c-0.1,1.2-0.2,2.4-0.4,3.7c0,0.1,0,0.2-0.1,0.4c0,0.1,0,0.2,0,0.3c-0.1,0.6-0.2,1.3-0.3,1.9
		c-0.4,2.6-1,5.1-1.8,7.6c-0.4,1.2-0.8,2.5-1.2,3.7c-0.1,0.3-0.2,0.6-0.4,1c0,0,0,0.1,0,0.1c-0.3,0.6-0.5,1.2-0.8,1.8
		c-1.2,2.5-2.7,4.9-4.4,7.2c-0.2,0.3-0.4,0.5-0.6,0.8c-0.5,0.6-1,1.1-1.5,1.7c-1.1,1.1-2.2,2.2-3.4,3.2c-0.3,0.2-0.5,0.5-0.8,0.7
		c-0.1,0.1-0.1,0.1-0.2,0.2c-0.6,0.4-1.3,0.9-1.9,1.4c-1.4,1-3,1.9-4.5,2.7c-0.7,0.4-1.5,0.7-2.2,1.1c-0.4,0.2-0.8,0.4-1.1,0.5
		c-0.1,0.1-1,0.5-0.3,0.1c0.7-0.4-0.1,0-0.3,0.1c-1.9,0.8-3.8,1.4-5.8,2c-2,0.6-4,1.1-6.1,1.5c-2.6,0.5-4.3,3.7-3.5,6.2
		c0.8,2.4,2.8,3.7,5.1,3.6c-0.1,3.7-0.2,7.5-0.2,11.2c-2.7,0-5.4,0-8.1,0c-10.4,0-20.9,0.1-31.3,0.1c-9.8,0-19.5,0.1-29.3,0.1
		c1.6-3.1,3.2-6.2,4.8-9.3c0.9-1.7,0.5-4.2-1.3-5.1c-1.7-0.9-4.2-0.5-5.1,1.3c-2.3,4.4-4.5,8.7-6.8,13.1c0,0-0.1,0-0.1,0
		c-3.3,0-6.6,0-9.9,0c2.9-5.1,5.6-10.4,8.1-15.7c0.8-1.8,0.6-4.1-1.3-5.1c-1.7-0.9-4.2-0.5-5.1,1.3c-3.1,6.6-6.6,13.2-10.2,19.5
		c-1.9,0-3.9,0-5.8,0c1.1-1.8,2.2-3.6,3.3-5.4c1-1.7,0.4-4.2-1.3-5.1c-1.8-1-4-0.4-5.1,1.3c-1.9,3.1-3.8,6.1-5.7,9.2
		c-3.5,0-7-0.1-10.6,0c0.2-14.8,0.3-29.7,0.4-44.5c0-0.4,0-0.7,0-1.1c2,2,4.1,4,6.2,5.9c1.9,1.8,5.2,2.1,7.1,0
		c1.8-1.9,2.1-5.2,0-7.1c-6.6-6-12.8-12.4-18.5-19.2c-1.4-1.6-2.7-3.3-4.1-5c-0.4-0.4-0.7-0.9-1.1-1.3c-0.1-0.1-0.4-0.5-0.5-0.7
		c-0.6-0.8-1.2-1.6-1.8-2.4c-2.5-3.4-4.9-6.8-7.2-10.3c-4.4-6.6-8.3-13.5-11.9-20.5c-1.7-3.3-3.3-6.6-4.7-10
		c-0.4-0.8-0.7-1.6-1.1-2.5c0-0.1,0-0.1-0.1-0.1c0,0,0-0.1-0.1-0.2c-0.2-0.5-0.4-1-0.6-1.5c-0.6-1.6-1.3-3.2-1.9-4.8
		c-2.2-6-4.2-12.1-5.7-18.3c-0.7-2.7-1.2-5.4-1.7-8.2c-0.1-0.6-0.2-1.3-0.3-1.9c0-0.3-0.1-0.6-0.1-0.9c0,0,0-0.1,0-0.1
		c-0.1-1.2-0.3-2.4-0.4-3.6c-0.4-4.1-0.3-8.2,0.2-12.3c0-0.2,0.1-0.8,0.1-0.9c0.1-0.5,0.2-1,0.2-1.5c0.2-1.1,0.4-2.2,0.6-3.2
		c0.5-2.2,1.1-4.5,1.8-6.7c0.7-2.1,1.4-4.2,2.2-6.3c0.2-0.5,0.4-1,0.6-1.4c0-0.1,0.1-0.2,0.1-0.2c0.1-0.2,0.1-0.3,0.2-0.5
		c0.5-1.1,1-2.2,1.5-3.3c2-4.2,4.2-8.3,6.6-12.3c4.7-8,10-15.7,15.3-23.4c5.9-8.7,11.9-17.4,17.8-26.1
		c11.9-17.4,23.8-34.8,35.6-52.2c2.9-4.3,5.8-8.5,8.7-12.8c1.1-1.6,2.3-3.2,3.4-4.8c0.1-0.1,0.1-0.2,0.2-0.2c0,0,0.1-0.1,0.2-0.2
		c0.3-0.4,0.6-0.7,0.9-1.1c0.7-0.8,1.4-1.6,2.1-2.4c1.3-1.5,2.7-2.9,4.1-4.2c0.4-0.3,0.8-0.7,1.2-1c0.1-0.1,0.5-0.4,0.6-0.5
		c0.1-0.1,0.6-0.5,0.8-0.6c0.5-0.3,0.9-0.7,1.4-1c0.7-0.5,1.5-0.9,2.2-1.3c0.4-0.2,0.9-0.4,1.3-0.6c-0.9,0.4,0.2-0.1,0.6-0.2
		c0.8-0.3,1.6-0.5,2.4-0.7c0.5-0.1,1-0.2,1.5-0.3c-1,0.2,0.2,0,0.6,0c0.9-0.1,1.9-0.1,2.8,0c0.3,0,0.8,0.1,0.8,0.1
		c0.4,0.1,0.7,0.1,1.1,0.2c0.9,0.2,1.8,0.5,2.7,0.8c0.1,0,0.2,0.1,0.2,0.1c0,0,0.1,0.1,0.2,0.1c0.5,0.3,1,0.5,1.6,0.8
		c0.8,0.4,1.5,0.9,2.2,1.4c0.3,0.2,1,0.8,0.4,0.3c0.4,0.4,0.9,0.8,1.3,1.2c0.6,0.6,1.3,1.2,1.9,1.9c0.2,0.2,0.4,0.4,0.6,0.7
		c0,0,0.1,0.1,0.2,0.2c0.1,0.1,0.1,0.2,0.1,0.2c0.2,0.2,0.3,0.5,0.5,0.7c0.5,0.8,1,1.6,1.5,2.5c0.2,0.4,0.4,0.8,0.6,1.2
		c0.1,0.1,0.1,0.2,0.2,0.4c-0.1-0.2,0,0,0.1,0.2c0,0,0,0,0,0c0,0,0,0,0,0c0,0,0,0.1,0.1,0.1c0.5,1.2,0.9,2.5,1.2,3.8
		c-4,0.5-8,1-12,1.5c-1,0.1-1.9,0.3-2.7,1.1c-0.7,0.7-1.1,1.7-1.1,2.7c0.1,1.8,1.7,4,3.8,3.8c4.3-0.5,8.6-1,12.9-1.6
		c0,0.5,0,1.1,0,1.6c0,1.1-0.1,2.1-0.2,3.2c0,0.2,0,0.4-0.1,0.6c0,0.1,0,0.2-0.1,0.4c-0.1,0.6-0.2,1.2-0.3,1.8
		c0,0.2-0.1,0.4-0.1,0.6c-0.2,0-0.4,0-0.6,0.1c-8.2,1.5-16.5,2.9-24.7,4.4c-2,0.4-3.1,2.8-2.6,4.6c0.6,2.1,2.6,3,4.6,2.6
		c7-1.2,14-2.5,21-3.7c-0.2,0.5-0.3,0.9-0.5,1.4c-0.3,0.7,0,0.1-0.3,0.8c-0.3,0.6-0.5,1.2-0.8,1.7c-1.2,2.5-2.5,4.9-3.8,7.3
		c-0.1,0-0.2,0-0.3,0c-6,1.2-12,2.4-18,3.5c-1.9,0.4-3.2,2.8-2.6,4.6c0.7,2.1,2.5,3,4.6,2.6c3.7-0.7,7.4-1.5,11.1-2.2
		c-4.8,7.6-9.8,15.1-14.6,22.6c-3.7,5.7-7.3,11.4-11,17c0,0,0,0,0,0.1c-7.8,12-15.6,24-23.3,36.1c-2.8,4.3-5.6,8.6-8.4,12.9
		c-1.4,2.2-0.5,5.6,1.8,6.8c2.5,1.3,5.3,0.6,6.8-1.8c10.4-16,20.7-32,31.1-48c0.3-0.3,0.6-0.6,0.9-0.8c0.1-0.1,0.2-0.2,0.3-0.3
		c0,0,0.1-0.1,0.3-0.2c1-0.7,2-1.4,3.1-1.9c0.5-0.3,1-0.5,1.5-0.7c0.2-0.1,0.2-0.1,0.3-0.1c0.1,0,0.3-0.1,0.4-0.1
		c1.1-0.4,2.2-0.7,3.3-1c1.1-0.3,2.3-0.4,3.4-0.7c-1.4,0.4,0.3,0,0.7-0.1c0.7-0.1,1.4-0.1,2.1-0.1c1.2,0,2.3,0,3.5,0.1
		c0.2,0,0.5,0,0.7,0.1c0.1,0,0.2,0,0.3,0c0.6,0.1,0.5,0.1-0.3,0c0.3-0.2,1.5,0.3,1.9,0.3c1.1,0.2,2.1,0.5,3.1,0.8
		c0.5,0.2,1,0.4,1.5,0.6c0,0,0,0,0.1,0c0.3,0.1,0.6,0.3,0.9,0.4c1,0.5,1.9,1.1,2.8,1.7c0.2,0.1,0.4,0.3,0.6,0.4
		c0.1,0,0.1,0.1,0.1,0.1c0,0,0,0,0.1,0.1c0.5,0.4,1.1,0.9,1.6,1.4c0.9,0.8,1.7,1.7,2.5,2.5c0.4,0.5,0.8,1,1.2,1.4
		c0,0.1,0.1,0.1,0.1,0.1c0,0,0,0,0,0.1c0.2,0.3,0.4,0.6,0.7,0.9c1.5,2.1,2.7,4.4,3.8,6.8c0,0,0,0,0,0c0,0,0,0,0,0
		c0.1,0.4,0.3,0.7,0.4,1.1c0.3,0.7,0.5,1.4,0.7,2.2c0.4,1.4,0.8,2.8,1.1,4.3c0.1,0.6,0.2,1.2,0.3,1.8c0,0.2,0,0.3,0,0.4
		c0,0.4,0.1,0.8,0.1,1.1c0.1,0.7,0.1,1.5,0.1,2.2c-2.9,1.9-5.5,4.2-8,6.7c-5,5.2-9.3,11.2-13.5,17.1c-4.3,6.2-8.3,12.5-11.9,19.1
		c-1.3,2.3-0.6,5.6,1.8,6.8c2.4,1.2,5.5,0.6,6.8-1.8c3.1-5.6,6.5-11.1,10-16.4c1.7-2.6,3.6-5.2,5.4-7.7c0.5-0.6,0.9-1.3,1.4-1.9
		c0.2-0.2,0.4-0.5,0.6-0.7c0-0.1,0.2-0.3,0.3-0.4c0.8-1,1.6-2.1,2.5-3.1c1.8-2.2,3.7-4.2,5.8-6.2c0.9-0.8,1.8-1.6,2.7-2.3
		c0.1-0.1,0.3-0.2,0.4-0.3c0.3-0.2,0.6-0.4,0.8-0.6c0.7-0.5,1.4-0.9,2.1-1.3c0.9-0.6,1.9-1,2.9-1.5c0,0,1.1-0.4,1.4-0.5
		c0.8-0.3,1.5-0.5,2.3-0.7c0.6-0.2,1.3-0.3,1.9-0.4c0.3,0,0.5-0.1,0.8-0.1c0,0,0,0,0.1,0c1.4-0.1,2.8-0.2,4.2-0.2
		c0.7,0,1.3,0.1,2,0.1c0.2,0,0.6,0,0.8,0.1c-1.2-0.4,0,0,0.2,0c1.3,0.2,2.6,0.5,3.9,0.9c0.6,0.2,1.2,0.4,1.9,0.7c0,0,0.1,0,0.1,0
		c0,0,0.1,0,0.1,0.1c0.2,0.1,0.5,0.2,0.7,0.3c1.2,0.6,2.4,1.3,3.5,2.1c0.1,0,0.1,0.1,0.2,0.1c0.2,0.1,0.4,0.3,0.5,0.5
		c0.4,0.4,0.8,0.7,1.2,1.1c0.4,0.4,0.9,0.9,1.3,1.3c0.2,0.2,0.4,0.5,0.6,0.7c0.1,0.1,0.2,0.2,0.2,0.3c0,0,0,0,0,0
		c0.7,1,1.3,1.9,1.9,3c0.3,0.5,0.5,1,0.8,1.5c0.1,0.2,0.2,0.5,0.4,0.8c0,0.1,0.1,0.3,0.2,0.4c0.4,1.2,0.8,2.4,1,3.6
		c0.1,0.5,0.2,1,0.3,1.5c0,0,0,0,0,0.1c0,0.4,0.1,0.7,0.1,1.1c0.1,1.2,0,2.4-0.1,3.6c-0.1,0.3-0.1,0.6-0.2,0.9
		c-0.1,0.6-0.2,1.2-0.4,1.8c-0.3,1.1-0.6,2.1-0.9,3.2c-0.2,0.6-0.4,1.1-0.6,1.6c0,0-0.1,0.2-0.1,0.3c-0.1,0.2-0.3,0.7-0.3,0.8
		c-1,2.2-2.2,4.4-3.4,6.4c-3,5-6.3,9.7-9.4,14.6c-3.5,5.4-6.6,11-8.9,17c-0.9,2.4,1,5.6,3.5,6.2c2.9,0.7,5.1-0.9,6.2-3.5
		c0.1-0.4,0.3-0.7,0.4-1.1c0,0,0,0,0-0.1c0,0,0,0,0,0c0.3-0.7,0.6-1.3,0.9-2c0.6-1.3,1.3-2.6,2-3.9c1.3-2.4,2.8-4.8,4.3-7.2
		c3-4.6,6.1-9.1,9-13.8c3-4.9,5.6-10.3,7-15.8c0.2,0,0.5-0.1,0.7-0.1c0,0,0,0,0,0c0,0,0,0,0.1,0c0.3,0,0.5-0.1,0.8-0.1
		c0.7-0.1,1.4-0.1,2-0.1c1.1,0,2.2-0.1,3.2,0c0.5,0,1.1,0.1,1.6,0.1c0.3,0,0.7,0.1,1,0.1c0.2,0,0.4,0,0.6,0.1c-0.2,0-0.4,0-0.5-0.1
		c0.3-0.1,1.4,0.2,1.7,0.3c0.5,0.1,1,0.2,1.5,0.3c1.2,0.3,2.4,0.7,3.5,1.1c0.3,0.1,1.7,0.5,0.6,0.2c0.5,0.1,0.9,0.4,1.4,0.6
		c1,0.5,2,1.1,3,1.7c0.4,0.3,0.8,0.6,1.2,0.9c0,0,0,0,0,0c0,0,0,0,0,0c0.2,0.2,0.4,0.3,0.6,0.5c0.9,0.8,1.7,1.6,2.5,2.4
		c0.4,0.4,0.8,0.9,1.2,1.3c0.2,0.3,1.1,1.5,0.4,0.5c0.7,1,1.4,1.9,2,2.9c0.6,1,1.1,1.9,1.6,2.9c0.2,0.5,0.5,1,0.7,1.5
		c0.1,0.3,0.3,0.7,0.3,0.9c0.8,2.1,1.4,4.4,1.8,6.6c0,0.2,0.1,0.3,0.1,0.5c0,0,0,0.1,0,0.1c0.1,0.6,0.1,1.2,0.2,1.8
		C369,298.6,369.1,299.8,369,301z"/>
	<path d="M171,59.2c0,0.1-0.1,0.2-0.1,0.2C171,59.4,171,59.4,171,59.2C171,59.2,171,59.2,171,59.2z"/>
	<path d="M223.1,59.3C223.1,59.3,223.1,59.3,223.1,59.3c-0.1-0.1-0.1-0.2-0.1-0.3C222.9,59,223,59.1,223.1,59.3z"/>
	<path d="M174.3,92.9c6,6.3,12.9,11.9,20.2,16.5c1.5,0.9,3.6,0.9,5,0c7.9-5,15.1-11,21.5-17.8c5.9-6.4,11.5-14.3,12.7-23.1
		c0.8-5.5-0.1-10.9-2.8-15.8c-4.3-7.3-12.9-11.1-21.2-9.6c-5,0.9-9.2,4-12.7,7.7c-3.6-3.9-8.1-7.1-13.3-7.8
		c-7.9-1.1-15.8,2.4-20.1,9.1c-4.2,6.4-4.5,14.7-2,21.7C164.3,81.1,169,87.3,174.3,92.9z M224,66.4c0-0.1,0-0.2,0-0.2
		C224,66.2,224,66.3,224,66.4z M224,62.8c0,0,0-0.1,0-0.3C224,62.7,224,62.8,224,62.8z M172.6,56.6c-0.1,0.1-0.1,0.2-0.2,0.3
		C172.4,56.8,172.5,56.7,172.6,56.6z M170.7,60.2c0.1-0.2,0.2-0.5,0.3-0.7c-0.1,0.3,0-0.1,0.1-0.2c0-0.1,0-0.1,0.1-0.2
		c0,0.1,0,0.1-0.1,0.1c0,0,0,0,0-0.1c0.4-0.7,0.7-1.4,1.2-2.1c0.1-0.1,0.1-0.2,0.2-0.3c0.1-0.1,0.1-0.2,0.2-0.2
		c0.1-0.1,0.2-0.2,0.2-0.2c0.2-0.3,0.5-0.5,0.8-0.8c0.1-0.1,0.3-0.3,0.4-0.4c0.4-0.4,1-0.7,1.5-1c0.3-0.2,0.6-0.3,1-0.5
		c0,0,0.1,0,0.1-0.1c0,0,0,0,0,0c0.6-0.2,1.1-0.4,1.7-0.5c0.3-0.1,0.7-0.1,1-0.2c0,0,0,0,0.1,0c0.1,0,0.1,0,0.2,0
		c0.6,0,1.9-0.3,2.4,0c-0.2,0-0.4-0.1-0.6-0.1c0.2,0,0.5,0.1,0.7,0.1c0.4,0.1,0.7,0.2,1.1,0.3c0.3,0.1,0.8,0.2,1.1,0.4
		c-1.1-0.7,0.3,0.2,0.5,0.3c0.7,0.4,1.3,0.8,2,1.2c0.1,0.1,0.6,0.5,0.6,0.5c0.2,0.2,0.4,0.3,0.5,0.5c0.7,0.6,1.4,1.3,2,2
		c0.5,0.6,1.1,1.2,1.6,1.8c0.1,0.1,0.4,0.5,0.5,0.6c0.2,0.3,0.4,0.6,0.6,0.9c2.3,3.2,6.4,3.2,8.6,0c0.2-0.2,0.3-0.5,0.5-0.7
		c0.1-0.1,0.2-0.2,0.3-0.4c0.2-0.3,0.1-0.2-0.3,0.4c-0.1-0.2,1.1-1.3,1.3-1.5c0.9-1,1.8-2,2.8-2.9c0.3-0.2,0.5-0.5,0.8-0.7
		c0,0,0.1-0.1,0.1-0.1c0.5-0.4,1.1-0.8,1.6-1.1c0.3-0.2,0.6-0.4,0.9-0.5c0.1,0,0.2-0.1,0.2-0.1c0.6-0.1,1.3-0.5,1.9-0.6
		c0.3-0.1,0.7-0.2,1.1-0.2c-0.2,0-0.4,0.1-0.6,0.1c0.2,0,0.5,0,0.7,0c0.6,0,1.2,0,1.8,0.1c0.1,0,0.2,0,0.2,0
		c0.3,0.1,0.6,0.1,0.9,0.2c0.6,0.1,1.3,0.3,1.8,0.6c0.1,0.1,0.3,0.2,0.3,0.2c0.3,0.2,0.6,0.3,0.9,0.5c0.3,0.2,0.6,0.4,0.9,0.6
		c0,0,0,0,0.1,0c0,0,0.1,0.1,0.1,0.1c0.5,0.5,1.1,1,1.6,1.6c0,0,0,0,0,0c0.2,0.4,0.5,0.7,0.7,1.1c0.2,0.4,0.5,0.8,0.7,1.3
		c0,0,0,0,0,0.1c0,0,0.1,0.1,0.1,0.2c0,0.1,0.1,0.2,0.1,0.3c0-0.1-0.1-0.2-0.1-0.2c0,0,0,0.1,0.1,0.1c0.3,0.9,0.6,1.7,0.7,2.6
		c0,0.1,0.1,0.2,0.1,0.3c0,0,0,0,0,0c0,0.4,0.1,0.9,0.1,1.3c0,0.9,0,1.9-0.1,2.8c0,0.2-0.1,0.4-0.1,0.4c-0.1,0.4-0.2,0.9-0.3,1.3
		c-0.2,0.9-0.5,1.8-0.8,2.6c-0.2,0.4-0.3,0.9-0.5,1.3c0.4-0.9-0.1,0.1-0.2,0.5c-0.4,0.9-0.9,1.8-1.4,2.7c-1,1.7-2,3.3-3.2,4.9
		c-0.1,0.2-0.2,0.3-0.3,0.5c0,0,0,0,0,0c-0.3,0.4-0.6,0.8-0.9,1.1c-0.6,0.7-1.3,1.5-1.9,2.2c-2.8,3.1-5.9,6.1-9.1,8.8
		c-0.9,0.8-1.8,1.5-2.7,2.2c-0.2,0.2-0.5,0.4-0.7,0.5c0,0,0,0,0,0c-0.5,0.3-0.9,0.7-1.4,1c-1.1,0.8-2.3,1.6-3.4,2.4
		c-0.5-0.3-1-0.6-1.5-1c-0.7-0.5-1.4-1-2.1-1.5c-0.3-0.2-0.6-0.4-0.9-0.7c-0.1-0.1-0.2-0.1-0.3-0.2c-0.1,0-0.1-0.1-0.3-0.2
		c-2.6-2.1-5.2-4.3-7.7-6.7c-2.4-2.3-4.7-4.7-6.8-7.3c-0.2-0.2-0.3-0.4-0.5-0.6c-0.1-0.1-0.1-0.1-0.1-0.2c0,0-0.1-0.1-0.1-0.1
		c-0.5-0.7-1-1.3-1.5-2c-0.9-1.3-1.7-2.7-2.5-4.1c-0.3-0.7-0.7-1.3-1-2c-0.1-0.2-0.6-1.4-0.1-0.3c-0.1-0.2-0.2-0.5-0.3-0.7
		c-0.5-1.5-1-3-1.3-4.5c0-0.1,0-0.1-0.1-0.2c0,0,0,0,0,0c-0.1-0.3-0.1-0.8-0.1-1.1c0-0.6,0-1.3,0-1.9c0-0.4,0.1-0.8,0.1-1.1
		c0,0,0,0,0-0.1c0,0,0-0.1,0-0.1C170.3,61.7,170.5,61,170.7,60.2z"/>
	<path d="M326.2,392.4c-1.8-0.9-4.1-0.5-5.1,1.3c-0.4,0.6-0.7,1.2-1.1,1.8c-0.1,0.1-0.1,0.2-0.2,0.3c0.1-0.1,0.2-0.2-0.1,0.1
		c0,0,0,0,0,0c0,0-0.1,0.1-0.1,0.1c0,0,0-0.1,0.1-0.1c-0.2,0.3-0.4,0.5-0.6,0.7c-0.5,0.5-1,1-1.5,1.5c-0.3,0.3-0.6,0.5-0.9,0.8
		c-0.1,0.1-0.2,0.2-0.3,0.2c-1.1,0.8-2.3,1.6-3.5,2.2c-0.3,0.2-0.6,0.3-1,0.4c1.1-0.5-0.1,0-0.4,0.1c-0.7,0.3-1.4,0.5-2.1,0.6
		c-1.9,0.5-3.2,2.7-2.6,4.6c0.6,2,2.6,3.1,4.6,2.6c6.8-1.7,12.7-6.2,16.2-12.3C328.5,395.8,328,393.3,326.2,392.4z"/>
	<path d="M319.7,395.7c0,0-0.1,0.1-0.1,0.2c0,0,0,0,0,0C319.7,395.8,319.7,395.8,319.7,395.7z"/>
	<path d="M250.4,224.2c0.8-0.3,1.7-0.5,2.5-0.7c0.4,0,0.9-0.1,1.3-0.1c1,0,2-0.4,2.7-1.1c0.7-0.7,1.1-1.7,1.1-2.7
		c-0.1-2-1.6-3.8-3.8-3.8c-4.4,0.1-8.6,1.8-11.9,4.6c-0.7,0.6-1.1,1.8-1.1,2.7c0,0.9,0.4,2,1.1,2.7c0.7,0.7,1.7,1.1,2.7,1.1
		c1,0,1.9-0.4,2.7-1.1c0,0,0.1-0.1,0.1-0.1C248.6,225.1,249.5,224.6,250.4,224.2z"/>
	<path d="M149.5,295.7c0-0.1-0.1-0.2-0.1-0.3c0-0.1-0.1-0.2-0.1-0.3c-0.1-0.4-0.3-0.8-0.4-1.2c-0.5-1.5-0.8-2.9-1.1-4.4
		c-0.1-0.8-0.2-1.6-0.2-2.5c-0.1-2-1.7-3.8-3.8-3.8c-2,0.1-3.8,1.6-3.8,3.8c0.2,5.1,1.5,10.2,4,14.7c1,1.7,3.5,2.4,5.1,1.3
		c1.7-1.1,2.4-3.3,1.3-5.1C150.2,297.2,149.8,296.4,149.5,295.7z M149.4,295.4c0,0.1,0.1,0.2,0.1,0.3
		C149.5,295.6,149.4,295.5,149.4,295.4z"/>
	<path d="M180.4,75.4c0.3,0.8,1.4,1.5,2.2,1.7c0.9,0.2,2.1,0.1,2.9-0.4c0.8-0.5,1.5-1.3,1.7-2.2c0-0.3,0.1-0.7,0.1-1
		c0-0.7-0.2-1.3-0.5-1.9c-1.1-2.5-2.1-5-3.2-7.5c-0.3-0.8-1.4-1.5-2.2-1.7c-0.9-0.2-2.1-0.1-2.9,0.4c-0.8,0.5-1.5,1.3-1.7,2.2
		c0,0.3-0.1,0.7-0.1,1c0,0.7,0.2,1.3,0.5,1.9C178.3,70.4,179.4,72.9,180.4,75.4z"/>
</g>
</svg>
