<?xml version="1.0" encoding="utf-8"?>
<!-- Generator: Adobe Illustrator 27.5.0, SVG Export Plug-In . SVG Version: 6.00 Build 0)  -->
<svg version="1.1" id="Layer_1" xmlns="http://www.w3.org/2000/svg" xmlns:xlink="http://www.w3.org/1999/xlink" x="0px" y="0px"
	 viewBox="0 0 500 500" style="enable-background:new 0 0 500 500;" xml:space="preserve">
<g>
	<path d="M456.9,129.2c-1.4-4.7-5.7-8.1-9.1-11.5c-5.7-5.7-11.4-11.5-17.2-17.2c-0.2-0.3-0.4-0.5-0.7-0.7
		c-9.3-9.3-18.6-18.6-27.9-27.9c-5.9-5.9-11.9-11.8-17.8-17.7c-1.7-1.7-3.5-3.5-5.2-5.2c-1.8-1.8-3.7-3.7-6-4.9
		c-4.2-2.2-8.6-1.4-12.3,1.3c-4,3-7.6,6.4-11.4,9.7c-3.8,3.3-7.5,6.5-11.3,9.8c-7.4,6.5-14.9,13-22.3,19.4
		c-14.7,12.8-29.3,25.6-43.9,38.4c-8.1-5.7-18.8-7.1-28.6-5.9c-6.6,0.8-13,2.3-19.5,3.7c-3.1,0.7-6.3,1.3-9.5,1.8
		c-0.1,0-0.5,0.1-0.5,0.1c-0.3,0-0.7,0.1-1,0.1c-0.7,0.1-1.4,0.1-2,0.2c-1.5,0.1-3,0.2-4.5,0.1c-5.5-0.1-10.6-1-15.4-3.7
		c0.3-4.8-1.9-9.4-5.9-12.3c-3.1-2.3-7-2.9-10.7-2.2c-7.5-4.1-16.1-6.1-24.7-5.1c-6.6,0.8-20,3.2-16.6,12.8c0.3,0.9,0.7,1.8,1,2.7
		c0,0,0,0.1,0,0.2c0,0,0,0.1,0,0.1c0,0.1-0.1,0.1-0.1,0.2c0-0.1,0-0.1,0.1-0.2c-0.1,0.2-0.2,0.3-0.3,0.5c0,0.1-0.1,0.1-0.1,0.1
		c-0.1,0.2-0.3,0.3-0.4,0.5c-0.3,0.3-0.6,0.7-0.9,1c-0.9,1.1-1.6,2.1-2.1,3.5c-0.9,2.4-0.5,5.3,1.4,7.2c0.6,0.6,1.4,1.1,2.2,1.5
		c0.6,0.3,1.2,0.5,1.7,0.7c0,0,0,0,0.1,0c0.2,0.1,0.4,0.2,0.4,0.2c0.1,0.1,0.2,0.2,0.4,0.2c0,0,0,0,0,0.1c0,0,0.1,0.5,0.2,0.7
		c0,0.2,0.1,0.4,0.1,0.6c0,0,0,0.1,0,0.2c0,0.2,0.1,0.9,0.1,0.7c0,0.3,0.1,0.5,0.1,0.8c0.1,0.4,0.1,0.8,0.2,1.2
		c0.3,1.1,0.8,2,1.4,2.9c3,3.8,8.9,3.8,12.4,0.8c0.9-0.7,1.6-1.6,2.5-2.4c0.2-0.1,0.3-0.3,0.5-0.4c0.1-0.1,0.1-0.1,0.2-0.2
		c0,0,0.1,0,0.1-0.1c0.4-0.3,0.9-0.6,1.3-0.9c0.8-0.5,1.5-0.9,2.3-1.3c0,0,0.1-0.1,0.2-0.1c0.1,0,0.2-0.1,0.4-0.1
		c0.4-0.2,0.9-0.3,1.3-0.5c3.2-1,6.4-1.7,9.5-2.8c1.9,1.2,4.2,2,6.6,2.2c5,0.4,9.5-2.1,12.2-6.1c9.7,5,21.4,4.6,32,2.6
		c6.3-1.2,12.6-2.9,18.9-4c2.9-0.5,5.7-0.9,8.7-1c1.2,0,2.5,0,3.7,0c0.7,0,1.3,0.1,2,0.1c0.3,0,0.6,0.1,1,0.1c0,0,0.5,0.1,0.7,0.1
		c1.5,0.2,3,0.5,4.4,0.9c0.7,0.2,1.5,0.4,2.2,0.7c0.2,0.1,0.5,0.2,0.7,0.3c0,0,0.5,0.2,0.6,0.3c1,0.4,2,0.9,2.9,1.5
		c-7.9,6.9-15.8,13.8-23.6,20.7c-7.2-3.9-16.2-3-23.9-0.2c-4.9,1.8-9.6,4.1-14.6,5.8c-4.9,1.6-10,2.7-14.8,3.1
		c-5.2,0.4-10.5,0.3-15.5-0.5c-1.4-3.6-4.3-6.6-8.1-8.1c-3.5-1.4-7.5-1.1-10.9,0.4c-8.1-2.1-16.8-2-24.7,0.8
		c-6.4,2.3-19.2,8-13.3,16.7c0.5,0.7,1,1.4,1.5,2.1c0,0,0.1,0.1,0.1,0.1c-0.2-0.3,0,0.2,0,0.1c0,0,0,0,0,0c0,0.1-0.1,0.4-0.1,0.5
		c0,0.1,0,0.1,0,0.1c0,0,0,0,0,0.1c-0.1,0.2-0.2,0.4-0.3,0.6c-0.2,0.5-0.5,0.9-0.7,1.4c-0.5,1.1-0.9,2.2-1.1,3.5
		c-0.4,2.7,0.7,5.5,3.2,6.9c1.6,0.9,3.4,0.9,5.1,1.4c-0.1-0.1-0.1-0.1,0.1,0c0,0,0,0,0,0c0,0,0,0,0,0c0,0,0,0,0,0c0,0,0,0,0,0
		c0,0,0,0,0,0c0,0,0,0,0,0c0.1,0.1,0.1,0.2,0.2,0.2c-0.1-0.1-0.1-0.1-0.2-0.2c0,0,0.1,0.1,0.1,0.1c0.1,0.1,0.3,0.6,0.4,0.7
		c0,0.1,0.1,0.1,0.1,0.2c0.1,0.2,0.2,0.5,0.3,0.7c0.8,2,1.7,3.8,3.5,5.1c3.9,2.7,9.5,0.9,12-2.8c0.6-1,1.2-2,1.8-2.9
		c0.1-0.1,0.2-0.2,0.2-0.3c0,0,0.3-0.3,0.3-0.4c0.3-0.4,0.7-0.8,1-1.1c0.3-0.3,0.6-0.6,0.9-0.9c0.2-0.1,0.3-0.3,0.5-0.4
		c0,0,0.3-0.2,0.4-0.3c0,0,0,0,0.1,0c0.2-0.1,0.4-0.3,0.6-0.4c0.4-0.3,0.8-0.5,1.1-0.7c2.8-1.7,5.7-3.1,8.4-4.9
		c2.2,0.8,4.7,1,7.1,0.6c5.8-1,9.8-5.7,11-11.2c9.1,1.1,18.4,0.6,27.3-1.7c5-1.3,9.6-3.3,14.3-5.2c2.4-1,4.8-1.9,7.2-2.7
		c1.1-0.3,2.3-0.7,3.4-0.9c0.5-0.1,1-0.2,1.4-0.3c0.1,0,0.2,0,0.2,0c0.4,0,0.8-0.1,1.1-0.1c1.1-0.1,2.3-0.1,3.4,0
		c0.3,0,0.5,0,0.8,0.1c0.1,0,0.2,0,0.3,0c0.1,0,0.1,0,0.2,0c0.6,0.1,1.1,0.2,1.7,0.3c0.2,0,0.3,0.1,0.5,0.1c-4,3.5-8,7-11.9,10.4
		c-30.2,26.4-60.4,52.8-90.6,79.2c-3.8,3.3-7.5,6.5-11.3,9.8c-2.8,2.4-5.9,4.9-7.5,8.4c-1.9,4.3-1.4,8.9,1.3,12.8
		c0.2,0.3,0.4,0.6,0.6,0.9c-7,7-14,13.9-21,20.9c-0.8-0.6-1.7-1.2-2.6-1.7c-4.6-2.7-10.2-3.1-14.2,0.9c-8.2,8.5-16.6,16.8-25.1,25
		c-2.5,2.4-5,4.8-7.4,7.3c-1.2,1.2-2.3,2.4-2.9,4c-0.9,2.1-1,4.2-0.5,6.4c1,4.6,4.7,8.7,7.8,12c0.7,0.8,1.5,1.5,2.2,2.3
		c2.7,2.8,5.4,5.5,8.2,8.3c8.9,9,17.9,17.9,26.8,26.9c10.4,10.4,20.8,20.8,31.2,31.1c8.1,8,16.1,16,24.2,24.1c2,1.9,3.9,3.9,5.9,5.8
		c3.2,3.1,6.6,6.6,10.9,8.2c4.5,1.6,8.4-0.5,11.6-3.5c6.6-6.3,12.9-13.1,19.4-19.5c4.3-4.3,8.8-8.5,13.2-12.9
		c4-4.1,3.4-9.8,0.7-14.4c-0.5-0.8-1-1.6-1.6-2.3c7-7,13.9-14.1,21-21.1c3.1,2.2,6.7,3.5,10.9,2.7c4.1-0.8,7.2-3.8,9.9-6.9
		c3.3-3.8,6.5-7.5,9.8-11.2c6.5-7.4,13-14.9,19.5-22.3c26.7-30.5,53.5-61.1,80.2-91.6c26.4-30.1,52.9-60.3,79.2-90.5
		c6.3-7.2,12.5-14.3,18.8-21.5C455.6,138.1,458.3,134,456.9,129.2z M172.7,123.4c0,0,0.1,0.1,0.2,0.2
		C172.8,123.5,172.7,123.4,172.7,123.4z M139.9,109.6C139.9,109.6,139.9,109.6,139.9,109.6C139.9,109.6,139.9,109.6,139.9,109.6
		C139.9,109.6,139.9,109.5,139.9,109.6C139.9,109.4,139.8,109.2,139.9,109.6z M144.4,133.3c0,0,0.1,0,0.1,0.1
		C144.5,133.4,144.4,133.3,144.4,133.3z M151.4,128.7c-1.6,1.1-3.2,2.3-4.5,3.7c-0.2,0.2-0.5,0.5-0.7,0.7c0,0-0.1,0.1-0.2,0.1
		c-0.1,0-0.5,0.2-0.5,0.2c0,0-0.1,0-0.1,0c-0.1,0-0.2,0-0.4,0c0,0-0.2,0-0.4-0.1c0-0.1,0-0.1-0.1-0.1c-0.1-0.2-0.1-0.4-0.2-0.6
		c0-0.1-0.1-0.3-0.1-0.5c0-0.2-0.1-0.9-0.1-0.8c0-0.3-0.1-0.5-0.1-0.8c-0.1-0.7-0.2-1.4-0.5-2.1c-0.7-1.9-1.9-3.4-3.7-4.4
		c-0.7-0.4-1.5-0.7-2.3-1c0,0-0.1,0-0.1-0.1c0.1-0.2,0.2-0.4,0.3-0.5c0,0,0.6-0.7,0.7-0.8c1.5-1.8,2.8-3.6,3-6
		c0.1-2-0.7-3.5-1.3-5.3c0-0.1-0.1-0.4-0.2-0.6c0,0,0,0,0.1-0.1c0,0,0,0,0.1,0c0.2-0.1,0.4-0.2,0.6-0.3c-0.1,0.1,0.5-0.2,0.7-0.3
		c0.7-0.3,1.4-0.5,2.2-0.7c1.6-0.5,3.1-0.9,4.7-1.1c0.3,0,0.5-0.1,0.8-0.1c0,0,0.3,0,0.5-0.1c0.1,0,0.3,0,0.3,0
		c0.3,0,0.5-0.1,0.8-0.1c1-0.1,2-0.1,2.9-0.2c1,0,2,0,3,0.1c1.1,0.1,1.8,0.2,2.5,0.3c2.5,0.4,4.9,1.1,7.2,2c-3.1,3.5-4,8.7-2.7,13.2
		c0.2,0.5,0.4,1,0.6,1.5C159.7,125.2,155.2,126.1,151.4,128.7z M175.8,124.8c0.1,0,0.2,0,0.4,0C176.2,124.9,176,124.8,175.8,124.8z
		 M177.5,124.8C177.5,124.8,177.6,124.8,177.5,124.8C177.6,124.8,177.5,124.8,177.5,124.8z M181.9,122.3c0.3-0.5-0.1,0.2-0.2,0.2
		c-0.3,0.4-0.7,0.7-1.1,1.1c0,0,0,0-0.1,0c-0.2,0.1-0.4,0.2-0.5,0.3c-0.2,0.1-0.4,0.2-0.5,0.3c-0.1,0-0.1,0.1-0.2,0.1
		c-0.4,0.2-0.3,0.1,0.2-0.1c0,0.2-1.1,0.4-1.2,0.4c0,0-0.4,0.1-0.6,0.1c-0.1,0-0.1,0-0.2,0c-0.4,0-0.9,0-1.3,0c-0.1,0-0.2,0-0.3,0
		c-0.1,0-0.2,0-0.2,0c-0.2,0-0.3-0.1-0.4-0.1c-0.3-0.1-0.8-0.1-1.1-0.3c-0.1,0-0.1-0.1-0.2-0.1c-0.3-0.1-0.5-0.3-0.8-0.4
		c0,0-0.2-0.1-0.4-0.2c0,0,0,0-0.1-0.1c-0.3-0.3-0.7-0.6-1-0.9c0,0-0.1-0.1-0.2-0.2c0.1,0.1,0.1,0.1,0,0c-0.1-0.1-0.2-0.2-0.2-0.2
		c0,0,0.1,0.1,0.2,0.2c0-0.1-0.1-0.1-0.1-0.2c-0.2-0.4-0.5-0.8-0.7-1.2c0-0.2-0.1-0.3-0.2-0.5c-0.1-0.4-0.2-0.8-0.3-1.1c0,0,0,0,0,0
		c0-0.2-0.1-0.5-0.1-0.6c0-0.5,0-0.9,0-1.4c0-0.1,0-0.3,0.1-0.4c0.1-0.4,0.2-0.8,0.3-1.1c0,0,0,0,0,0c0,0,0,0,0-0.1
		c0.1-0.3,0.1-0.3,0.1-0.3c0.1-0.1,0.1-0.3,0.1-0.3c0.1-0.1,0.2-0.3,0.2-0.4c0.1-0.1,0.4-0.5,0.4-0.6c0.3-0.3,0.5-0.6,0.8-0.8
		c0,0,0.1-0.1,0.1-0.1c0,0,0,0,0.1-0.1c0.2-0.1,0.3-0.2,0.5-0.3c0.3-0.2,0.5-0.3,0.8-0.4c0,0,0,0,0.1,0c0.6-0.2,1.2-0.4,1.8-0.5
		c0,0,0.1,0,0.1,0c0.2,0,0.5,0,0.7,0c0.2,0,0.5,0,0.7,0c0.1,0,0.2,0,0.3,0c0.3,0.1,0.7,0.2,1,0.3c0.3,0.1,0.5,0.2,0.7,0.2
		c0,0,0,0,0,0c0,0,0.1,0,0.1,0.1c0.3,0.2,1.3,0.5,1.4,0.9c0,0-0.7-0.6-0.2-0.1c0.2,0.2,0.5,0.4,0.7,0.7c0.1,0.1,0.2,0.2,0.3,0.4
		c0,0,0,0,0,0c0,0.1,0.1,0.1,0.1,0.2c0.3,0.4,0.5,0.8,0.7,1.3c0,0,0,0,0,0.1c0.1,0.2,0.2,0.5,0.2,0.7c0.1,0.2,0.1,0.5,0.2,0.7
		c0,0,0,0,0,0c0,0,0,0,0,0c0,0.5,0,1,0,1.6c0,0,0,0.1,0,0.1c-0.1,0.4-0.2,0.7-0.2,1.1c-0.1,0.3-0.2,0.5-0.3,0.8c0,0,0,0,0,0.1
		c0,0,0,0,0,0.1c-0.2,0.4-0.4,0.8-0.7,1.2C182.1,122.1,182,122.2,181.9,122.3z M166.5,159.1c-0.1-0.1-0.1-0.2-0.1-0.3
		C166.5,159,166.5,159.1,166.5,159.1z M164.7,156.6c-0.2-0.1-0.3-0.2-0.3-0.2C164.5,156.5,164.6,156.5,164.7,156.6z M159.8,155.2
		c0,0-0.1,0-0.2,0C159.7,155.2,159.7,155.2,159.8,155.2z M154.6,164.3c0,0.1,0.1,0.1,0.1,0.1C154.6,164.5,154.6,164.4,154.6,164.3z
		 M122.5,162.3C122.5,162.3,122.5,162.3,122.5,162.3C122.5,162.4,122.4,162.7,122.5,162.3C122.5,162.3,122.5,162.3,122.5,162.3z
		 M122.6,162.2C122.6,162.2,122.6,162.2,122.6,162.2C122.6,162.2,122.6,162.2,122.6,162.2C122.6,162.2,122.6,162.2,122.6,162.2
		C122.6,162.2,122.6,162.2,122.6,162.2z M122.6,162.3C122.6,162.4,122.5,162.4,122.6,162.3L122.6,162.3z M122.6,162.2
		C122.6,162.2,122.6,162.2,122.6,162.2C122.6,162.2,122.6,162.3,122.6,162.2C122.6,162.3,122.6,162.2,122.6,162.2z M122.6,162.2
		C122.6,162.2,122.6,162.2,122.6,162.2c0-0.1,0.1-0.1,0.1-0.2C122.7,162.1,122.6,162.1,122.6,162.2z M122.5,162.2
		C122.5,162.2,122.5,162.2,122.5,162.2C122.5,162.1,122.4,162,122.5,162.2z M122.5,175.5C122.5,175.5,122.5,175.4,122.5,175.5
		C122.5,175.4,122.5,175.5,122.5,175.5z M132.5,184c0,0,0.1,0,0.2,0c0,0,0,0,0,0C132.6,184,132.6,184,132.5,184z M132.8,184
		C132.8,184,132.8,184,132.8,184C132.8,184,132.8,184,132.8,184C132.7,184,132.7,184,132.8,184C132.8,184,132.8,184,132.8,184z
		 M132.8,184.2C132.8,184.2,132.8,184.2,132.8,184.2C132.8,184.2,132.8,184.2,132.8,184.2C132.8,184.1,132.8,184.1,132.8,184.2
		C132.8,184.1,132.8,184.2,132.8,184.2z M132.8,184.1C132.8,184.1,132.8,184.1,132.8,184.1C132.8,184,132.8,184,132.8,184.1
		C132.8,184,132.8,184.1,132.8,184.1C132.8,184.1,132.8,184.1,132.8,184.1z M132.7,184C132.7,184,132.7,184,132.7,184
		C132.7,184,132.7,184,132.7,184C132.7,184,132.7,184,132.7,184z M132.6,184C132.5,184,132.5,184,132.6,184L132.6,184z M134,183.7
		C133.9,183.7,133.9,183.7,134,183.7C133.6,183.9,133.8,183.8,134,183.7z M138.3,177.7c-1.3,1.4-2.4,2.9-3.4,4.5
		c-0.3,0.4-0.5,0.8-0.7,1.2c-0.1,0.1-0.1,0.1-0.2,0.2c-0.1,0.1-0.2,0.1-0.4,0.2c0.1-0.1-0.3,0.1-0.6,0.2c-0.1,0-0.1,0-0.2,0
		c0,0,0,0,0,0c0,0,0,0-0.1,0c-0.1-0.1-0.2-0.3-0.2-0.4c-0.1-0.1-0.1-0.3-0.2-0.4c-0.1-0.3-0.2-0.6-0.3-0.8c-0.3-0.8-0.7-1.7-1.1-2.5
		c-1.1-1.8-2.6-3-4.6-3.6c-0.7-0.2-1.4-0.3-2.2-0.4c-0.2,0-0.5-0.1-0.7-0.1c0.1-0.2,0.1-0.4,0.1-0.4c0.2-0.4,0.4-0.7,0.6-1.1
		c1.1-2.2,1.9-4.4,1.4-6.9c-0.4-1.8-1.6-3.2-2.6-4.7c-0.1-0.1-0.2-0.3-0.3-0.4c0.1-0.1,0.2-0.2,0.3-0.3c0.1-0.1,0.4-0.3,0.5-0.5
		c0.1-0.1,0.3-0.2,0.3-0.2c0.1-0.1,0.3-0.2,0.4-0.3c0.7-0.4,1.4-0.8,2.1-1.2c0.7-0.4,1.4-0.8,2.1-1.1c0.6-0.3,1.8-0.8,2.1-1
		c5.6-2.3,11.6-3,17.7-2.2c-2.1,4.2-2,9.2,0.4,13.4c0.3,0.5,0.6,0.9,0.9,1.4C145.5,172.4,141.5,174.4,138.3,177.7z M162.8,167.9
		c0.3-0.1,0.4-0.2,0.4-0.2C163,167.8,162.9,167.9,162.8,167.9z M164.5,167C164.5,167,164.5,167,164.5,167
		C164.5,167,164.5,167,164.5,167z M166.4,164.2c0,0,0,0.1,0,0.1c-0.1,0.2-0.2,0.3-0.2,0.4c-0.2,0.3-0.4,0.8-0.6,1.1
		c-0.1,0-0.1,0.1-0.2,0.2c-0.2,0.1-0.3,0.3-0.4,0.5c-0.2,0.2-0.4,0.3-0.6,0.5c-0.1,0.1-0.1,0.1-0.1,0.2c-0.3,0.2-0.6,0.3-0.8,0.4
		c-0.1,0-0.2,0.1-0.3,0.2c0,0-0.1,0-0.2,0.1c-0.1,0-0.2,0.1-0.2,0.1c-0.4,0.1-0.9,0.2-1.3,0.3c-0.3,0-0.5,0-0.8,0
		c-0.2,0-0.4,0-0.5,0c-0.1,0-0.1,0-0.2,0c-0.3-0.2-1.2-0.2-1.5-0.3c0,0,0,0-0.1,0c0,0-0.4-0.2-0.5-0.2c-0.4-0.2-0.7-0.4-1.1-0.6
		c0,0,0,0,0,0c-0.1-0.1-0.2-0.2-0.4-0.3c-0.2-0.2-1-0.8-1-1.1c0.1,0.1,0.2,0.2,0.3,0.4c-0.1-0.1-0.2-0.3-0.3-0.4
		c-0.1-0.2-0.2-0.3-0.3-0.5c-0.1-0.2-0.2-0.4-0.3-0.5c-0.1-0.2-0.1-0.3-0.2-0.3c-0.1-0.3-0.2-0.8-0.2-0.9c0-0.2-0.1-0.3-0.1-0.5
		c0-0.1,0-0.2-0.1-0.3c0-0.2-0.1-1.1-0.1-1.2c0-0.2,0-0.3,0-0.5c0,0,0,0,0,0c0,0,0,0,0-0.1c0-0.1,0-0.1,0-0.2c0-0.4,0.1-0.2,0,0
		c0.1-0.3,0.1-0.8,0.2-1c0.1-0.2,0.2-0.5,0.2-0.7c-0.3,0.8,0,0,0.1-0.2c0.1-0.3,0.3-0.5,0.4-0.8c0,0,0.1-0.2,0.2-0.3
		c0.1-0.1,0.2-0.3,0.3-0.3c0.2-0.2,0.4-0.4,0.6-0.6c0.1-0.1,0.3-0.3,0.4-0.4c-0.7,0.6,0,0,0.2-0.1c0.4-0.3,0.8-0.5,1.3-0.7
		c-0.1,0.1,0.8-0.3,1-0.3c0.1,0,0.3-0.1,0.5-0.1c0,0,0.1,0,0.2,0c0.5,0,0.9,0,1.4,0c0.1,0,0.2,0,0.3,0c0.4,0,0.4,0-0.2,0
		c0.2,0,0.6,0.1,0.8,0.1c0.3,0.1,1.3,0.2,1.5,0.5c-0.1-0.1-0.3-0.1-0.4-0.2c0.2,0.1,0.3,0.1,0.5,0.2c0.2,0.1,0.4,0.2,0.7,0.4
		c0,0,0.2,0.1,0.3,0.2c0,0,0.1,0.1,0.2,0.1c0.1,0.1,0.1,0.1,0.2,0.2c0.2,0.2,1.1,0.8,1,1.1c-0.1-0.1-0.2-0.2-0.3-0.4
		c0.1,0.1,0.2,0.3,0.3,0.4c0.2,0.2,0.3,0.5,0.5,0.8c0,0,0.1,0.1,0.2,0.2c0,0,0,0.1,0.1,0.1c0,0.1,0.1,0.2,0.1,0.4
		c0.1,0.2,0.1,0.4,0.2,0.6c0,0.1,0.3,1.1,0.1,0.6c-0.2-0.6,0,0.2,0,0.3c0,0.4,0,0.7,0,1.1c0,0.2,0,0.4,0,0.7c0,0.1,0,0.1,0,0.2
		C166.7,163.3,166.6,163.7,166.4,164.2z M447.3,132C447.3,132,447.3,132,447.3,132c0,0,0-0.2,0-0.5
		C447.3,131.8,447.3,131.9,447.3,132z M368.2,52.8c-0.1,0-0.2-0.1-0.3-0.2c0.1,0,0.1,0,0.1,0C368.4,52.7,368.7,53,368.2,52.8z
		 M368,52.7c0.1,0,0.2,0.1,0.2,0.1C368.1,52.8,368,52.7,368,52.7C367.9,52.7,367.9,52.7,368,52.7z M367.9,52.6c-0.1,0-0.2,0-0.2,0
		c0,0,0,0,0,0c0,0,0,0,0,0c0,0-0.1,0-0.1,0c0,0,0,0,0,0c0,0,0,0,0-0.1C367.7,52.6,367.8,52.6,367.9,52.6z M365.7,54
		c0.1-0.1,0.2-0.2,0.3-0.3c0.1,0,0.1-0.1,0.3-0.2c0.4-0.2,0.8-0.4,1.1-0.7c0.1,0,0.1-0.1,0.1-0.1c0,0,0,0,0.1,0c0.1,0,0.2,0,0.2-0.1
		c0.2,0.1,0.6,0.3,0.5,0.2c0.2,0.1,0.5,0.3,0.7,0.4c0.1,0.1,0.2,0.1,0.3,0.2c0.1,0.1,0.2,0.2,0.3,0.3c1.8,1.7,3.6,3.5,5.4,5.2
		c10.2,10.1,20.3,20.2,30.5,30.4c-2.3,0.4-4.5,0.8-6.8,1.2c-0.9,0.2-1.8,1-2.2,1.7c-0.5,0.8-0.7,2-0.4,2.9c0.7,2.1,2.5,3,4.6,2.6
		c3.7-0.7,7.5-1.4,11.2-2c1.7,1.7,3.5,3.5,5.2,5.2c-3.6,0.8-7.2,1.5-10.9,2.3c-1.9,0.4-3.2,2.8-2.6,4.6c0.7,2,2.6,3,4.6,2.6
		c5.1-1.1,10.1-2.1,15.2-3.2c1.4,1.4,2.8,2.8,4.2,4.2c-0.5,0.2-1,0.3-1.5,0.4c-1.1,0.3-2.2,0.6-3.2,0.8c-0.6,0.1-1.2,0.2-1.8,0.3
		c-0.2,0-0.5,0.1-0.7,0.1c-0.1,0-0.2,0-0.3,0c-1,0.1-1.9,0.3-2.7,1.1c-0.7,0.7-1.1,1.7-1.1,2.7c0,1,0.4,2,1.1,2.7
		c0.7,0.6,1.7,1.2,2.7,1.1c4.6-0.6,9-1.7,13.3-3.3c1.3,1.3,2.5,2.5,3.8,3.8c3,3,6.4,6,9.2,9.3c-0.1-0.1,0.5,0.7,0.5,0.7
		c0.1,0.1,0.2,0.5,0.3,0.7c0,0.1,0,0.2,0,0.3c-0.1,0.2-0.2,0.4-0.2,0.5c0.4-1.2-0.1,0-0.2,0.2c-0.2,0.3-0.4,0.6-0.6,0.9
		c-0.1,0.1-0.7,0.8-0.7,0.8c-2.8,3.2-5.6,6.4-8.3,9.6c-10-10-19.9-20.1-29.9-30.1c-12.1-12.2-24.1-24.4-36.2-36.6
		c-5-5-10-10.1-15-15.1c1.4-1.2,2.8-2.5,4.3-3.7C362.2,57.1,364,55.6,365.7,54z M338.8,77.4c3.3-2.8,6.5-5.7,9.8-8.5
		c10.3,10.4,20.7,20.8,31,31.2c12.1,12.2,24.1,24.4,36.2,36.6c5,5,9.9,10,14.9,15c-5.5,6.3-11.1,12.7-16.6,19
		c-2.8-2.8-5.7-5.7-8.5-8.5c1-1,1.9-1.9,2.9-2.9c0.9-0.9,1.8-1.8,2.7-2.7c0,0,0.1,0.1,0.1,0.1c0.7,0.7,1.7,1.1,2.7,1.1
		c0.9,0,2-0.4,2.7-1.1c0.7-0.7,1.1-1.7,1.1-2.7c0-1-0.4-1.9-1.1-2.7c-1.8-1.8-3.7-3.7-5.5-5.5c-0.7-0.7-1.7-1.1-2.7-1.1
		c-0.9,0-2,0.4-2.7,1.1c-0.7,0.7-1.1,1.7-1.1,2.7c0,1,0.4,2,1.1,2.7c0,0,0.1,0.1,0.1,0.1c-1.9,1.9-3.7,3.7-5.6,5.6
		c-3.7-3.7-7.4-7.4-11.1-11.1c1-1,1.9-1.9,2.9-2.9c0.9-0.9,1.8-1.8,2.7-2.7c0,0,0.1,0.1,0.1,0.1c0.7,0.7,1.7,1.1,2.7,1.1
		c0.9,0,2-0.4,2.7-1.1c0.7-0.7,1.1-1.7,1.1-2.7c0-1-0.4-1.9-1.1-2.7c-1.8-1.8-3.7-3.7-5.5-5.5c-0.7-0.7-1.7-1.1-2.7-1.1
		c-0.9,0-2,0.4-2.7,1.1c-0.7,0.7-1.1,1.7-1.1,2.7c0,1,0.4,2,1.1,2.7c0,0,0.1,0.1,0.1,0.1c-1.9,1.9-3.7,3.7-5.6,5.6
		c-0.7-0.7-1.4-1.4-2.2-2.2c-2.9-2.9-5.8-5.8-8.8-8.8c1-1,1.9-1.9,2.9-2.9c0.9-0.9,1.8-1.8,2.7-2.7c0,0,0.1,0.1,0.1,0.1
		c0.7,0.7,1.7,1.1,2.7,1.1c0.9,0,2-0.4,2.7-1.1c0.7-0.7,1.1-1.7,1.1-2.7c0-1-0.4-1.9-1.1-2.7c-1.8-1.8-3.7-3.7-5.5-5.5
		c-0.7-0.7-1.7-1.1-2.7-1.1c-0.9,0-2,0.4-2.7,1.1c-0.7,0.7-1.1,1.7-1.1,2.7c0,1,0.4,2,1.1,2.7c0,0,0.1,0.1,0.1,0.1
		c-1.9,1.9-3.7,3.7-5.6,5.6c-3.4-3.4-6.8-6.8-10.1-10.1c1-1,1.9-1.9,2.9-2.9c0.9-0.9,1.8-1.8,2.7-2.7c0,0,0.1,0.1,0.1,0.1
		c0.7,0.7,1.7,1.1,2.7,1.1c0.9,0,2-0.4,2.7-1.1c0.7-0.7,1.1-1.7,1.1-2.7c0-1-0.4-1.9-1.1-2.7c-1.8-1.8-3.7-3.7-5.5-5.5
		c-0.7-0.7-1.7-1.1-2.7-1.1c-0.9,0-2,0.4-2.7,1.1c-0.7,0.7-1.1,1.7-1.1,2.7c0,1,0.4,2,1.1,2.7c0,0,0.1,0.1,0.1,0.1
		c-1.9,1.9-3.7,3.7-5.6,5.6c-2.5-2.5-5.1-5.1-7.6-7.6c-0.7-0.7-1.3-1.3-2-2c1-1,1.9-1.9,2.9-2.9c0.9-0.9,1.8-1.8,2.7-2.7
		c0,0,0.1,0.1,0.1,0.1c0.7,0.7,1.7,1.1,2.7,1.1c0.9,0,2-0.4,2.7-1.1c0.7-0.7,1.1-1.7,1.1-2.7c0-1-0.4-1.9-1.1-2.7
		c-1.8-1.8-3.7-3.7-5.5-5.5c-0.7-0.7-1.7-1.1-2.7-1.1c-0.9,0-2,0.4-2.7,1.1c-0.7,0.7-1.1,1.7-1.1,2.7c0,1,0.4,2,1.1,2.7
		c0,0,0.1,0.1,0.1,0.1c-1.9,1.9-3.7,3.7-5.6,5.6c-2.7-2.7-5.3-5.3-8-8C332.4,83.1,335.6,80.2,338.8,77.4z M206,350.9
		c-3.4-3.4-6.7-6.7-10.1-10.1c-0.3-0.3-0.7-0.7-1-1c11.1-11,22.1-22.1,33.2-33.1c13.8-13.8,27.6-27.6,41.5-41.4
		c14.4-14.3,28.7-28.7,43.1-43c13.9-13.9,27.9-27.8,41.8-41.8c9.2-9.2,18.4-18.4,27.7-27.6c2.9,2.9,5.7,5.7,8.6,8.6
		c0.8,0.8,1.7,1.7,2.5,2.5c-7.6,7.6-15.2,15.2-22.8,22.8c-13.8,13.8-27.6,27.6-41.5,41.4c-14.4,14.3-28.7,28.7-43.1,43
		c-13.9,13.9-27.9,27.8-41.8,41.8c-12.5,12.5-25.1,25.1-37.6,37.6C206.2,350.6,206.1,350.8,206,350.9z M251.4,153.8
		c4.3,4.3,8.6,8.6,12.9,12.9c-2.6,2.6-5.2,5.2-7.8,7.8c-4.5-4.5-8.9-8.9-13.4-13.4C245.9,158.6,248.7,156.2,251.4,153.8z
		 M265.4,141.6c4,4,8,8,12,12c-2.6,2.6-5.2,5.2-7.8,7.8c-4.2-4.2-8.3-8.4-12.5-12.5C259.8,146.4,262.6,144,265.4,141.6z
		 M279.3,129.4c3.7,3.7,7.4,7.4,11.1,11.2c-2.6,2.6-5.2,5.2-7.8,7.8c-3.9-3.9-7.8-7.8-11.6-11.7
		C273.8,134.2,276.5,131.8,279.3,129.4z M259.1,182.5c0,0,0.1-0.1,0.1-0.1c0,0,0-0.1,0.1-0.1c2.2-2.2,4.5-4.5,6.7-6.7
		c2.1-2.1,4.1-4.1,6.2-6.2c0,0,0.1-0.1,0.1-0.1c0,0,0,0,0.1-0.1c4.3-4.3,8.6-8.6,12.9-12.9c0,0,0.1-0.1,0.1-0.1c0,0,0,0,0-0.1
		c4.3-4.3,8.6-8.6,12.9-12.9c0,0,0.1,0,0.1-0.1c0,0,0,0,0,0c3.1-3.1,6.2-6.2,9.3-9.3c9.2-9.2,18.4-18.4,27.7-27.6
		c3.2,3.2,6.4,6.4,9.6,9.6c-7.6,7.6-15.2,15.2-22.8,22.8c-13.8,13.8-27.6,27.6-41.5,41.4c-14.4,14.3-28.7,28.7-43.1,43
		c-13.9,13.9-27.9,27.8-41.8,41.8c-12.5,12.5-25.1,25.1-37.6,37.6c-0.1,0.1-0.2,0.2-0.3,0.3c-2.6-2.6-5.2-5.2-7.8-7.8
		c-0.6-0.6-1.2-1.2-1.8-1.8c11.1-11,22.1-22.1,33.2-33.1c13.8-13.8,27.6-27.6,41.5-41.4C234.9,206.6,247,194.6,259.1,182.5z
		 M196.3,275c13.8-13.8,27.6-27.6,41.5-41.4c14.4-14.3,28.7-28.7,43.1-43c13.9-13.9,27.9-27.8,41.8-41.8
		c9.2-9.2,18.4-18.4,27.7-27.6c1,1,2.1,2.1,3.1,3.1c2.3,2.3,4.7,4.7,7,7c-7.6,7.6-15.2,15.2-22.8,22.8
		c-13.8,13.8-27.6,27.6-41.5,41.4c-14.4,14.3-28.7,28.7-43.1,43c-13.9,13.9-27.9,27.8-41.8,41.8c-12.5,12.5-25.1,25.1-37.6,37.6
		c-0.1,0.1-0.2,0.2-0.3,0.3c-3.4-3.4-6.8-6.7-10.1-10.1C174.2,297.1,185.3,286,196.3,275z M211.8,290.4
		c13.8-13.8,27.6-27.6,41.5-41.4c14.4-14.3,28.7-28.7,43.1-43c13.9-13.9,27.9-27.8,41.8-41.8c9.2-9.2,18.4-18.4,27.7-27.6
		c3.6,3.6,7.3,7.3,10.9,10.9c-7.6,7.6-15.2,15.2-22.8,22.8c-13.8,13.8-27.6,27.6-41.5,41.4c-14.4,14.3-28.7,28.7-43.1,43
		c-13.9,13.9-27.9,27.8-41.8,41.8c-12.5,12.5-25.1,25.1-37.6,37.6c-0.1,0.1-0.2,0.2-0.3,0.3c-3.6-3.6-7.3-7.3-10.9-10.9
		C189.7,312.5,200.7,301.5,211.8,290.4z M321.6,92.5c2.8,2.8,5.7,5.7,8.5,8.5c-7.6,7.6-15.2,15.2-22.8,22.8
		c-3.8,3.8-7.7,7.7-11.5,11.5c-3.6-3.6-7.2-7.2-10.8-10.8c3.3-2.8,6.5-5.7,9.8-8.5C303.7,108.1,312.6,100.3,321.6,92.5z M124.4,265
		c1.1-1.2,2.3-2.3,3.5-3.4c3.6-3.1,7.2-6.3,10.8-9.4c7.3-6.3,14.6-12.7,21.9-19c14.8-12.9,29.6-25.9,44.4-38.8
		c10.8-9.5,21.6-18.9,32.4-28.4c4.6,4.6,9.2,9.2,13.7,13.7c-9.5,9.5-19,19-28.5,28.5c-13.9,13.9-27.9,27.8-41.8,41.8
		c-12.5,12.5-25.1,25.1-37.6,37.6c-0.1,0.1-0.2,0.2-0.3,0.3c-3.3-3.3-6.6-6.6-9.9-9.9c-1.7-1.7-3.4-3.4-5.1-5.1
		c-0.5-0.5-1-1-1.5-1.5c-0.1-0.1-0.2-0.2-0.2-0.2c-0.3-0.3-0.6-0.6-0.9-0.9c0,0.1-0.7-0.9-0.7-0.9c-0.2-0.4-0.4-0.7-0.7-1.1
		c-0.1-0.1-0.1-0.1-0.1-0.2c0-0.1,0-0.1,0-0.2c0-0.2-0.1-0.4-0.1-0.6c0,0.1,0-0.4,0-0.6c0,0,0,0,0-0.1c0.1-0.2,0.4-0.9,0.2-0.5
		c0.1-0.2,0.2-0.4,0.3-0.5C124.1,265.4,124.3,265.1,124.4,265z M86.4,302.2C86.5,302.1,86.5,302.1,86.4,302.2L86.4,302.2z
		 M86.5,302.2c-0.1,0-0.1,0.1-0.2,0.1c-0.1,0-0.1,0-0.2,0C86.3,302.3,86.5,302.3,86.5,302.2z M161.1,445.8c0,0,0.3,0.2,0.4,0.3
		C161.3,446,161.1,445.8,161.1,445.8z M163.2,447.2C163.2,447.2,163.2,447.3,163.2,447.2C163.2,447.3,163.2,447.3,163.2,447.2
		C163.2,447.3,163.2,447.3,163.2,447.2c0.1,0,0.1,0,0.2,0c0,0,0,0,0,0c0,0,0,0,0,0c0,0,0,0,0,0c0,0-0.1,0.1-0.1,0.1
		C162.9,447.6,162.8,447.4,163.2,447.2z M163.2,447.2C163.2,447.2,163.2,447.2,163.2,447.2C163.2,447.2,163.2,447.2,163.2,447.2
		C163.2,447.2,163.2,447.2,163.2,447.2z M171,439.9c-2.2,2.3-4.5,4.6-6.8,6.8c0,0-0.1,0.1-0.1,0.1c0,0,0.1,0,0.1,0c0,0-0.1,0-0.1,0
		c-0.1,0.1-0.1,0.1-0.2,0.2c-0.1,0-0.1,0.1-0.1,0.1c0.1,0,0.1,0,0.2,0c-0.1,0-0.1,0-0.2,0.1c0,0,0,0,0,0c0.1,0,0.3,0,0.4,0
		c-0.1,0-0.3,0-0.5,0c0,0,0,0,0,0c0,0,0,0-0.1,0c0,0,0,0,0,0c0,0,0,0,0,0c-0.1,0-0.1,0-0.2,0c0,0,0.1,0,0.2,0c0,0,0,0,0,0
		c0,0,0,0,0,0c0,0-0.1,0-0.1,0c-0.4-0.2-1.2-0.7-1.8-1c0,0-0.1-0.1-0.3-0.3c-0.2-0.2-0.5-0.4-0.7-0.6c-0.5-0.4-1-0.9-1.5-1.3
		c-0.8-0.8-1.6-1.5-2.4-2.3c-0.3-0.3-0.6-0.6-0.8-0.8c-0.9-0.9-1.8-1.8-2.7-2.7c-7-7-14.1-14-21.1-21c-10-9.9-19.9-19.9-29.9-29.8
		c-8.1-8.1-16.2-16.2-24.3-24.3c3.6-0.8,7.1-1.9,10.6-3.2c1.8-0.7,3.3-2.6,2.6-4.6c-0.6-1.8-2.6-3.4-4.6-2.6c-3,1.1-6.1,2.1-9.3,2.9
		c-1.5,0.4-3,0.7-4.6,1c-0.4,0.1-0.7,0.1-1.1,0.2c-1.5-1.5-3-3-4.5-4.5c7.8-1.9,15.6-4,23.2-6.5c1.9-0.6,3.2-2.6,2.6-4.6
		c-0.5-1.9-2.7-3.2-4.6-2.6c-9,2.9-18.2,5.3-27.4,7.4c-0.9-0.9-1.8-1.8-2.7-2.7c-0.2-0.2-0.3-0.3-0.5-0.5c-0.5-0.5-1-1-1.4-1.6
		c-0.1-0.1-0.2-0.2-0.3-0.3c4.1-1.3,8.3-2.2,12.5-2.9c1.9-0.3,3.2-2.8,2.6-4.6c-0.7-2.1-2.5-3-4.6-2.6c-3.9,0.6-7.7,1.5-11.5,2.6
		c6-6,12.1-11.8,18.1-17.8c4.3-4.3,8.7-8.7,12.9-13.1c0,0,0,0,0.1-0.1c0,0,0,0,0,0c0,0,0,0,0,0c0,0,0,0,0,0l0,0c0,0,0,0,0,0
		c0,0,0,0,0.1-0.1c0,0,0,0,0,0c0,0,0,0,0,0c0,0,0,0,0,0c0,0,0,0,0,0c0,0,0,0,0,0c0,0,0,0,0.1,0c0,0,0.1,0,0.1,0c0,0,0,0,0,0
		c0.2,0,0.3,0.1,0.5,0.2c0,0-0.1-0.1-0.1-0.1c0,0,0.1,0.1,0.2,0.1c0.1,0,0.1,0,0.2,0.1c0.3,0.1,0.3,0.2,0.2,0.1
		c0.3,0.1,0.6,0.3,0.9,0.4c0.5,0.3,1,0.6,1.5,1c0.1,0.1,0.2,0.1,0.2,0.2c0,0,0.5,0.4,0.6,0.5c2.8,2.4,5.3,5.1,7.9,7.7
		c5.4,5.4,10.9,10.8,16.3,16.3c13.1,13.1,26.2,26.2,39.3,39.3c11.6,11.6,23.2,23.2,34.8,34.8c1.1,1.1,2.2,2.2,3.2,3.2
		c0.9,0.9,1.7,1.7,2.5,2.7c0.2,0.3,0.5,0.5,0.7,0.8c0,0,0,0,0,0c0.4,0.6,0.8,1.2,1.2,1.8c0.1,0.2,0.5,1.2,0.7,1.4
		c0,0.1,0.1,0.2,0.1,0.3c0,0.1,0.1,0.2,0.1,0.3c0,0.1,0,0.1,0,0.2c-1,0.9-2,1.9-3,2.8C186.5,424.1,178.7,432,171,439.9z
		 M197.1,412.4C197,412.2,196.9,411.9,197.1,412.4C197.1,412.4,197.1,412.4,197.1,412.4z M195.4,409.7
		C195.6,410,195.5,409.9,195.4,409.7L195.4,409.7z M196.7,396.6c-0.3-0.2-0.5-0.5-0.8-0.7c-2.6-2.6-5.1-5.1-7.7-7.7
		c-6.1-6.1-12.1-12.1-18.2-18.2c-13.6-13.6-27.2-27.2-40.8-40.8c-6-6-12.1-12.1-18.1-18.1c-2.5-2.5-5.1-5-7.6-7.6
		c-0.2-0.2-0.3-0.3-0.5-0.5c6.9-6.8,13.7-13.5,20.5-20.4c2.7,2.7,5.4,5.4,8,8c14.7,14.7,29.5,29.5,44.2,44.2
		c13.2,13.2,26.5,26.5,39.7,39.7c0.5,0.5,1,1,1.5,1.6C210.2,382.9,203.5,389.8,196.7,396.6z M290.4,311.8
		c-12.8,14.7-25.7,29.3-38.5,44c-3.2,3.6-6.3,7.2-9.5,10.8c-1.6,1.8-3.1,3.6-4.7,5.4c-0.7,0.7-1.3,1.5-2,2.2
		c-0.2,0.2-0.5,0.4-0.7,0.6c-0.1,0.1-0.5,0.3-0.6,0.4c-0.1,0.1-0.6,0.3-0.7,0.4c-0.2,0.1-0.4,0.1-0.6,0.2c0,0-0.1,0-0.1,0
		c0,0-0.1,0-0.1,0c-0.3,0-1.4-0.3-0.3,0c-0.3-0.1-0.6-0.2-0.9-0.2c0,0-0.8-0.4-0.9-0.4c-0.9-0.5-1.3-0.9-2.1-1.7
		c-0.4-0.4-0.8-0.8-1.2-1.2c-5.4-5.4-10.8-10.8-16.2-16.2c11.1-11,22.1-22.1,33.2-33.1c13.8-13.8,27.6-27.6,41.5-41.4
		c14.4-14.3,28.7-28.7,43.1-43c13.9-13.9,27.9-27.8,41.8-41.8c9.2-9.2,18.4-18.4,27.6-27.6c3,3,6,6,9,9
		c-12.8,14.7-25.7,29.4-38.6,44C342.7,252.1,316.5,282,290.4,311.8z"/>
	<path d="M163.5,447.2C163.5,447.2,163.5,447.2,163.5,447.2C163.5,447.2,163.5,447.2,163.5,447.2
		C163.5,447.2,163.5,447.2,163.5,447.2C163.5,447.2,163.6,447.2,163.5,447.2C163.6,447.2,163.6,447.2,163.5,447.2c0.1,0,0.1,0,0.1,0
		c0,0,0,0,0.1,0C163.6,447.1,163.6,447.2,163.5,447.2C163.5,447.2,163.5,447.2,163.5,447.2z"/>
	<path d="M163.6,447.1c0.2-0.1,0.3-0.2,0.4-0.3c0,0,0,0,0,0C163.9,446.9,163.7,447,163.6,447.1z"/>
	<path d="M86.2,302.4C86.2,302.4,86.2,302.4,86.2,302.4c-0.1,0-0.1,0-0.1,0c0,0,0,0,0,0c0,0-0.1,0.1-0.1,0.1
		C86.1,302.4,86.2,302.4,86.2,302.4C86.2,302.4,86.2,302.4,86.2,302.4z"/>
	<polygon points="163.4,447.2 163.4,447.2 163.4,447.2 	"/>
	<path d="M163.3,447.3c0,0-0.1,0-0.1,0C163,447.3,163,447.3,163.3,447.3z"/>
	<path d="M163.5,447.2c-0.1,0-0.1,0-0.1,0C163.4,447.2,163.4,447.2,163.5,447.2C163.5,447.2,163.5,447.2,163.5,447.2z"/>
	<path d="M163.6,447.1C163.6,447.1,163.5,447.1,163.6,447.1C163.5,447.2,163.5,447.2,163.6,447.1
		C163.6,447.1,163.6,447.1,163.6,447.1z"/>
	<path d="M86.8,302.5C86.8,302.5,86.8,302.5,86.8,302.5c0.1,0.1,0.3,0.2,0.4,0.2C87,302.7,86.9,302.6,86.8,302.5z"/>
	<path d="M86,302.4C86,302.4,86,302.4,86,302.4C86,302.4,86,302.4,86,302.4C86,302.4,86,302.4,86,302.4C86,302.4,86,302.4,86,302.4z
		"/>
	<path d="M163.4,447.2C163.4,447.2,163.4,447.2,163.4,447.2C163.4,447.2,163.4,447.2,163.4,447.2
		C163.4,447.2,163.4,447.2,163.4,447.2z"/>
	<path d="M154,160.9C154,160.9,154,160.9,154,160.9c0,0,0.1-0.1,0.1-0.2C154.1,160.8,154.1,160.8,154,160.9z"/>
	<path d="M124.2,183.4C124.2,183.4,124.2,183.4,124.2,183.4C124.2,183.4,124.2,183.4,124.2,183.4
		C124.2,183.4,124.2,183.4,124.2,183.4C124.2,183.4,124.2,183.4,124.2,183.4C124.2,183.4,124.2,183.4,124.2,183.4
		c-0.1,0-0.1,0-0.1,0C124.2,183.5,124.4,183.7,124.2,183.4C124.3,183.5,124.3,183.5,124.2,183.4
		C124.3,183.5,124.3,183.5,124.2,183.4C124.2,183.4,124.2,183.4,124.2,183.4z"/>
	<path d="M171.8,122.4C171.8,122.4,171.8,122.4,171.8,122.4C171.8,122.4,171.7,122.4,171.8,122.4
		C171.8,122.4,171.8,122.4,171.8,122.4z"/>
	<path d="M171,115.4c-0.1,0.1-0.1,0.2-0.1,0.3c0,0,0,0,0,0c0,0,0,0,0,0C170.9,115.7,171,115.5,171,115.4z"/>
	<path d="M174,420.4c-1,0-1.9,0.4-2.7,1.1c-2.6,2.6-5.1,5.1-7.7,7.7c-0.7,0.7-1.1,1.7-1.1,2.7c0,0.9,0.4,2,1.1,2.7
		c0.7,0.7,1.7,1.1,2.7,1.1c1,0,1.9-0.4,2.7-1.1c2.6-2.6,5.1-5.1,7.7-7.7c0.7-0.7,1.1-1.7,1.1-2.7c0-0.9-0.4-2-1.1-2.7
		C175.9,420.9,175,420.4,174,420.4z"/>
	<path d="M240.9,346c-2.6,2.4-5.2,4.8-7.8,7.1c-0.7,0.6-1.1,1.7-1.1,2.7c0,0.9,0.4,2,1.1,2.7c1.6,1.4,3.8,1.4,5.3,0
		c2.6-2.4,5.2-4.8,7.8-7.1c0.7-0.6,1.1-1.7,1.1-2.7c0-0.9-0.4-2-1.1-2.7C244.6,344.6,242.4,344.6,240.9,346z"/>
	<path d="M197,220.1c3.1-2.9,6.2-5.7,9.3-8.6c1.4-1.3,1.5-4,0-5.3c-1.5-1.4-3.8-1.4-5.3,0c-3.1,2.9-6.2,5.7-9.3,8.6
		c-1.4,1.3-1.5,4,0,5.3C193.2,221.5,195.4,221.5,197,220.1z"/>
</g>
</svg>
